<svg id="undraw_mint_tea_7su0" xmlns="http://www.w3.org/2000/svg" xmlns:xlink="http://www.w3.org/1999/xlink" width="781.2" height="609.4" viewBox="0 0 781.2 609.4">
  <defs>
    <linearGradient id="linear-gradient" x1="2.642" y1="1" x2="2.642" gradientUnits="objectBoundingBox">
      <stop offset="0" stop-color="gray" stop-opacity="0.251"/>
      <stop offset="0.54" stop-color="gray" stop-opacity="0.122"/>
      <stop offset="1" stop-color="gray" stop-opacity="0.102"/>
    </linearGradient>
    <linearGradient id="linear-gradient-2" x1="3.404" y1="1.001" x2="3.404" y2="0" xlink:href="#linear-gradient"/>
    <linearGradient id="linear-gradient-3" x1="25.863" y1="0.5" x2="26.863" y2="0.5" xlink:href="#linear-gradient"/>
  </defs>
  <ellipse id="Ellipse_2" data-name="Ellipse 2" cx="390.6" cy="56.508" rx="390.6" ry="56.508" transform="translate(0 496.384)" fill="#ff0073" opacity="0.1"/>
  <path id="Path_3" data-name="Path 3" d="M570,518.618S418.937,525.2,421.125,546.492s184.918,43.878,306.554,0C727.646,546.492,717.305,517.056,570,518.618Z" transform="translate(-180.826 -158.981)" fill="#a1c4f5"/>
  <path id="Path_4" data-name="Path 4" d="M410.042,381.97h2.188s-.727-21.793-3.65-26.153h1.462s-4.377-18.886-10.934-23.973l2.188-.727s-7.292-13.8-18.961-16.706l1.821-1.094s-16.4-5.446-24.424-6.173l1.462-.727a64.4,64.4,0,0,0-16.505-6.165,37.162,37.162,0,0,0,4.736-14.2l-.727.134s2.456-5.688,1.562-20.69c0,0-1.9-7.267.543-10.692l-.175-1.1a18.345,18.345,0,0,1-11.5,2.965l-.175-1.1s-10.859,2.113-12.847,3.943l-.117-.743s-9.138,3.734-11.16,7.459l-.543-1.052s-5.922,4.494-6.774,10.341c-.058.175-.1.359-.142.535l-.643-.768-.217,1.437v-.042s-.067.4-.167,1.069a47.011,47.011,0,0,0-2.8-7.718,27.952,27.952,0,0,0-7.668-11.076l.217,2.289S280.32,249.166,267.3,248.6l.593,1.328s-13.457-5.154-31.516-2.706l.593,1.328s-11.978-1.829-39.819,7.351c0,0-12.73,7.242-20.423,4.3l-2,.885s8.495,6.557,11.427,20.356l-2.013.877s9.514,19.629,13.949,22.428l-1.336.593s11.694,15.486,19.721,17.474l-1.671,1.545s12.271,9.656,24.107,7.584l-1.22,1.729s17.2-1.671,24.825-4.268l-1.036,1.261a63.323,63.323,0,0,0,14.016-.459c-.075.334-.142.668-.184,1l.693-.234a30.821,30.821,0,0,0-2,6.3c-14.943,12.7-31.741,33.571-32.167,63.483l31.933-45.532a89.264,89.264,0,0,0,2.013,12.078s3.091,6.849,1.245,10.625l.359,1.061a18.385,18.385,0,0,1,10.859-4.836l.359,1.061s10.391-3.892,12.012-6.022l.242.71a47.991,47.991,0,0,0,6.549-5.012c3.851,5.154,9.188,11.143,15.169,14.1v-1.453s10.207,10.174,27.707,15.261v-1.362s10.207,6.54,39.368,9.447c0,0,14.584-1.453,20.415,4.352h2.188S407.168,395.778,410.042,381.97Z" transform="translate(-67.987 -108.653)" fill="#ff0073" opacity="0.1"/>
  <path id="Path_5" data-name="Path 5" d="M604.085,335l.6,2.1s20.757-6.682,24.14-10.709l.4,1.4s16.956-9.414,20.047-17.124l1.3,1.9s11.26-10.809,10.859-22.829l1.545,1.453s.718-17.266-.835-25.176l1.1,1.2a64.476,64.476,0,0,0,1.378-17.541,37.429,37.429,0,0,0,14.927.652l-.318-.677s6.156.835,20.323-4.176c0,0,6.465-3.834,10.424-2.422l1.019-.476a18.339,18.339,0,0,1-6.031-10.241l1.019-.476s-5.012-9.882-7.326-11.26l.677-.317s-6.1-7.752-10.241-8.67l.835-.835s-5.947-4.452-11.8-3.667h-.551l.568-.835-1.445.192v-.042l-1.069.134a47.828,47.828,0,0,0,6.682-4.82,28.105,28.105,0,0,0,8.537-10.424l-2.138.835s7.284-18.46,4.252-31.14l-1.1.927s1.253-14.35-6.081-31.031l-1.119.961s-1.537-12.02-18.026-36.252c0,0-10.475-10.249-9.765-18.452l-1.4-1.671s-3.968,9.973-16.422,16.6l-1.4-1.671S621.4,104.988,619.93,110.024l-.936-1.119s-11.694,15.478-11.36,23.773l-1.963-1.211s-5.9,14.451-.643,25.259l-2-.693s6.357,16.071,10.942,22.687l-1.5-.652a63.285,63.285,0,0,0,4.31,13.365,6.9,6.9,0,0,0-1.019.1l.418.61a30.346,30.346,0,0,0-6.607-.192c-16.322-10.859-41-21.225-69.923-13.423l52.565,18.159a90.027,90.027,0,0,0-11.059,5.262s-5.73,4.853-9.873,4.118l-.919.643a18.376,18.376,0,0,1,7.643,9.088l-.927.643s6.607,8.913,9.1,9.882l-.61.426a47.5,47.5,0,0,0,6.582,4.928c-3.892,5.12-8.161,11.936-9.372,18.468l1.395-.4s-6.966,12.613-7.033,30.831l1.395-.393s-3.466,11.611,1.771,40.445c0,0,5.413,13.615,1.437,20.824l.6,2.1S590.06,336.006,604.085,335Z" transform="translate(-206.149 -75.51)" fill="#ff0073" opacity="0.1"/>
  <path id="Path_6" data-name="Path 6" d="M818.6,370.146l-.367,1.027s10.391,3.341,12.939,2.673l-.242.685s9.631,1.111,13.131-1.128v1.153s7.727-1.119,11.051-6.123l.209,1.036s5.321-6.808,7.008-10.466l.1.835a32.27,32.27,0,0,0,5.672-6.749,18.585,18.585,0,0,0,5.847,4.611l.067-.359s2.272,2.113,9.489,4.176c0,0,3.742.317,4.945,2.046l.551.1a9.188,9.188,0,0,1,.526-5.914l.56.1s.835-5.488.292-6.682l.368.067s-.217-4.937-1.671-6.515l.585-.075s-1.119-3.542-3.734-4.928l-.226-.159.468-.167s-.242-.142-.643-.351h0l-.476-.259a24.083,24.083,0,0,0,4.11,0,14.2,14.2,0,0,0,6.507-1.754l-1.119-.284s8.353-5.388,10.8-11.427l-.727.058a34.948,34.948,0,0,0,6.557-14.392l-.718.05s2.873-5.338,3.216-19.989c0,0-1.27-7.217,1.4-10.349l-.083-1.094a18.15,18.15,0,0,1-11.51,1.971l-.083-1.086s-10.775,1.119-12.822,2.79l-.058-.727s-9.255,2.89-11.535,6.357l-.451-1.061s-6.607,4.176-7.618,10.082l-.61-.835s-2.1,8.353-2.155,12.421l-.418-.7a31.754,31.754,0,0,0-2.138,6.682,4.689,4.689,0,0,0-.443-.259v.368a15.473,15.473,0,0,0-2.64-2c-3.475-9.188-10.491-20.573-24.533-25.819l16.1,22.687a44.991,44.991,0,0,0-6.031-1.078s-3.742.309-5.212-1.194h-.56a9.189,9.189,0,0,1,.459,5.931h-.6s.092,5.546.835,6.682h-.376a24.6,24.6,0,0,0,1.245,3.926c-3.074.944-6.791,2.506-9.188,4.778l.685.242a34.955,34.955,0,0,0-11.828,10.4l.685.242s-4.795,3.709-11.059,16.965c0,0-1.762,7.117-5.479,8.888l-.368,1.027A18.2,18.2,0,0,1,818.6,370.146Z" transform="translate(-283.247 -114.345)" fill="#ff0073" opacity="0.1"/>
  <ellipse id="Ellipse_3" data-name="Ellipse 3" cx="176.423" cy="38.006" rx="176.423" ry="38.006" transform="translate(212.767 513.232)" fill="#a1c4f5"/>
  <ellipse id="Ellipse_4" data-name="Ellipse 4" cx="176.423" cy="38.006" rx="176.423" ry="38.006" transform="translate(212.767 513.232)" opacity="0.1"/>
  <ellipse id="Ellipse_5" data-name="Ellipse 5" cx="176.423" cy="38.006" rx="176.423" ry="38.006" transform="translate(212.767 508.154)" fill="#a1c4f5"/>
  <ellipse id="Ellipse_6" data-name="Ellipse 6" cx="129.997" cy="28.008" rx="129.997" ry="28.008" transform="translate(259.947 518.152)" opacity="0.1"/>
  <path id="Path_7" data-name="Path 7" d="M491.34,541.31s25.894,11.644,26.278,37.471" transform="translate(-179.16 -162.975)" fill="none" stroke="#57b894" stroke-miterlimit="10" stroke-width="6"/>
  <path id="Path_8" data-name="Path 8" d="M491.34,541.31s25.894,11.644,26.278,37.471" transform="translate(-179.16 -162.975)" fill="none" stroke="#407d3b" stroke-miterlimit="10" stroke-width="6" opacity="0.3"/>
  <path id="Path_9" data-name="Path 9" d="M474.016,533.766s7.977,15.2,3.809,23.5l-.342-1.036s-4.511,8.286-10.024,11.051v-.66a33.128,33.128,0,0,1-13.173,7.259v-.693s-4.861,3.116-18.727,4.494c0,0-6.933-.693-9.706,2.072h-1.044a17.249,17.249,0,0,0,.986-11.084H424.75s.351-10.366,1.737-12.438h-.693s2.08-8.988,5.2-11.4l-1.036-.351s3.466-6.565,9.013-7.944l-.835-.518s7.8-2.6,11.619-2.94l-.693-.342S463.959,524.093,474.016,533.766Z" transform="translate(-160.964 -160.936)" fill="#57b894"/>
  <path id="Path_10" data-name="Path 10" d="M474.016,533.766s7.977,15.2,3.809,23.5l-.342-1.036s-4.511,8.286-10.024,11.051v-.66a33.128,33.128,0,0,1-13.173,7.259v-.693s-4.861,3.116-18.727,4.494c0,0-6.933-.693-9.706,2.072h-1.044a17.249,17.249,0,0,0,.986-11.084H424.75s.351-10.366,1.737-12.438h-.693s2.08-8.988,5.2-11.4l-1.036-.351s3.466-6.565,9.013-7.944l-.835-.518s7.8-2.6,11.619-2.94l-.693-.342S463.959,524.093,474.016,533.766Z" transform="translate(-160.964 -160.936)" fill="#407d3b" opacity="0.3"/>
  <path id="Path_11" data-name="Path 11" d="M474.706,533.581s7.626,14.609,3.65,22.553l-.334-.994s-4.318,7.969-9.623,10.617v-.66a31.833,31.833,0,0,1-12.613,6.966v-.66s-4.653,2.99-17.925,4.318c0,0-6.641-.668-9.3,1.988h-.994a16.706,16.706,0,0,0,.994-10.625h-.994s.334-9.957,1.671-11.945h-.668s2-8.629,5.012-10.951l-.994-.334s3.341-6.306,8.629-7.635l-.835-.493s7.468-2.506,11.118-2.823l-.66-.334S465.066,524.292,474.706,533.581Z" transform="translate(-161.674 -160.897)" fill="#57b894"/>
  <path id="Path_12" data-name="Path 12" d="M435.91,571.3a125.653,125.653,0,0,1,20.807-24.75c-9.23-3.734-20.807,8.821-20.807,8.821,8.578-12.129,19.262-10.024,21.484-9.422a71.437,71.437,0,0,1,9.339-6.975c-4.176-4.461-17.884,1.453-17.884,1.453,11-6.323,16.756-3.082,18.377-1.779a46.17,46.17,0,0,1,8.812-4.177s-3.634,2.364-8.9,6.323c1.428,2.665,5.287,11.97-3.625,22.82,0,0,9.013-14.442,3.024-22.361-2.9,2.2-6.256,4.853-9.748,7.852.66,3.107,1.671,12.939-9.706,20.882,0,0,12.271-11.16,9.113-20.339C449.091,555.8,441.431,563.313,435.91,571.3Z" transform="translate(-163.478 -161.679)" fill="#407d3b" opacity="0.3"/>
  <path id="Path_13" data-name="Path 13" d="M483.8,528.292s-1.119-17.132,6.048-23.021l-.1,1.086s7.518-5.747,13.674-6.022l-.276.635a33.145,33.145,0,0,1,14.985-1.286l-.284.626s5.7-.835,18.936,3.5c0,0,6.056,3.441,9.715,2.038l.952.426a17.291,17.291,0,0,0-5.438,9.681l.952.426s-4.527,9.33-6.632,10.667l.635.276s-5.546,7.367-9.38,8.353l.835.735s-5.847,4.594-11.469,3.609l.585.835s-8.186-.835-11.811-2.03l.493.593S489.06,541.189,483.8,528.292Z" transform="translate(-179.422 -155.163)" fill="#57b894"/>
  <path id="Path_14" data-name="Path 14" d="M483.8,528.292s-1.119-17.132,6.048-23.021l-.1,1.086s7.518-5.747,13.674-6.022l-.276.635a33.145,33.145,0,0,1,14.985-1.286l-.284.626s5.7-.835,18.936,3.5c0,0,6.056,3.441,9.715,2.038l.952.426a17.291,17.291,0,0,0-5.438,9.681l.952.426s-4.527,9.33-6.632,10.667l.635.276s-5.546,7.367-9.38,8.353l.835.735s-5.847,4.594-11.469,3.609l.585.835s-8.186-.835-11.811-2.03l.493.593S489.06,541.189,483.8,528.292Z" transform="translate(-179.422 -155.163)" fill="#407d3b" opacity="0.3"/>
  <path id="Path_15" data-name="Path 15" d="M483.479,528.565s-1.052-16.439,5.847-22.11l-.1,1.052s7.175-5.53,13.106-5.847l-.267.61a31.742,31.742,0,0,1,14.35-1.253l-.267.6s5.455-.835,18.134,3.341c0,0,5.8,3.341,9.3,1.955l.91.4a16.639,16.639,0,0,0-5.221,9.305l.911.4s-4.344,8.971-6.365,10.249l.61.267s-5.321,7.083-9,7.994l.777.7s-5.6,4.419-10.984,3.475l.551.794s-7.835-.752-11.3-1.93l.468.568S488.5,540.969,483.479,528.565Z" transform="translate(-179.142 -155.389)" fill="#57b894"/>
  <path id="Path_16" data-name="Path 16" d="M535.146,512.44a125.911,125.911,0,0,1-29.06,14.2c6.916,7.159,22.595.393,22.595.393-12.763,7.6-21.718,1.336-23.464-.117a71.771,71.771,0,0,1-11.368,2.589c2.013,5.772,16.94,5.922,16.94,5.922-12.621,1.311-16.564-3.984-17.541-5.847a46.024,46.024,0,0,1-9.748.25s4.277-.685,10.692-2.172c-.225-3.015,0-13.081,12.529-19.379,0,0-14.1,9.547-11.836,19.212,3.542-.835,7.685-1.9,12.1-3.224.652-3.107,3.734-12.529,17.332-15.119,0,0-15.745,5.221-16.589,14.893C516.8,521.277,526.869,517.468,535.146,512.44Z" transform="translate(-178.514 -156.604)" fill="#407d3b" opacity="0.3"/>
  <path id="Path_17" data-name="Path 17" d="M478.947,532.037s-8.278,2.815-12.1.05l.543-.092s-3.8-2.949-4.744-5.981l.351.058a17.089,17.089,0,0,1-2.581-7.259l.351.058s-1.169-2.706-.743-9.84c0,0,.9-3.458-.259-5.087l.084-.526a8.729,8.729,0,0,0,5.471,1.412l.084-.526s5.179,1.011,6.106,1.879l.058-.359s4.344,1.779,5.3,3.55l.259-.5s3.015,2.289,3.266,5.2l.326-.393a38.706,38.706,0,0,1,.543,6.114l.226-.326S484.618,527.719,478.947,532.037Z" transform="translate(-169.54 -155.735)" fill="#57b894"/>
  <path id="Path_18" data-name="Path 18" d="M478.947,532.037s-8.278,2.815-12.1.05l.543-.092s-3.8-2.949-4.744-5.981l.351.058a17.089,17.089,0,0,1-2.581-7.259l.351.058s-1.169-2.706-.743-9.84c0,0,.9-3.458-.259-5.087l.084-.526a8.729,8.729,0,0,0,5.471,1.412l.084-.526s5.179,1.011,6.106,1.879l.058-.359s4.344,1.779,5.3,3.55l.259-.5s3.015,2.289,3.266,5.2l.326-.393a38.706,38.706,0,0,1,.543,6.114l.226-.326S484.618,527.719,478.947,532.037Z" transform="translate(-169.54 -155.735)" fill="#407d3b" opacity="0.3"/>
  <path id="Path_19" data-name="Path 19" d="M479.5,531.6s-7.743,2.6-11.327,0l.51-.083s-3.558-2.731-4.444-5.538l.326.05a15.779,15.779,0,0,1-2.431-6.682l.326.05s-1.094-2.506-.71-9.1c0,0,.835-3.2-.251-4.7l.075-.493a8.228,8.228,0,0,0,5.12,1.32l.084-.484s4.845.936,5.713,1.737l.05-.317s4.068,1.671,4.97,3.291l.242-.468s2.832,2.122,3.066,4.82l.309-.367a35.479,35.479,0,0,1,.51,5.663l.217-.3S484.8,527.62,479.5,531.6Z" transform="translate(-169.971 -156.013)" fill="#57b894"/>
  <path id="Path_20" data-name="Path 20" d="M465.184,509.86a62.388,62.388,0,0,1,10.483,12.112c2.548-4.227-2.69-10.859-2.69-10.859,5.271,5.145,3.4,10.207,2.932,11.251a35.486,35.486,0,0,1,2.69,5.112c2.506-1.671.677-8.862.677-8.862,2.239,5.847.2,8.436-.56,9.146a22.4,22.4,0,0,1,1.362,4.636s-.835-1.963-2.4-4.845c-1.42.493-6.273,1.671-10.859-3.558,0,0,6.365,5.538,10.708,3.224-.835-1.587-1.888-3.433-3.082-5.379-1.57.083-6.465-.2-9.447-6.382,0,0,4.5,6.875,9.238,6.056a61.041,61.041,0,0,0-9.055-11.652Z" transform="translate(-170.652 -156.822)" fill="#407d3b" opacity="0.3"/>
  <path id="Path_21" data-name="Path 21" d="M483.751,537.133s8.6-1.4,11.945,1.963h-.56s3.258,3.542,3.684,6.682l-.334-.109a17.023,17.023,0,0,1,1.336,7.584l-.334-.117s.71,2.865-.894,9.831c0,0-1.47,3.258-.593,5.012l-.175.5a8.712,8.712,0,0,0-5.154-2.3l-.175.5s-4.937-1.854-5.713-2.865l-.109.342s-3.993-2.506-4.644-4.385l-.334.451s-2.6-2.748-2.356-5.672l-.393.334a38.561,38.561,0,0,1,.484-6.115l-.284.276S477.436,540.449,483.751,537.133Z" transform="translate(-175.129 -162.032)" fill="#57b894"/>
  <path id="Path_22" data-name="Path 22" d="M483.751,537.033s8.6-1.4,11.945,1.963h-.56s3.258,3.533,3.684,6.682l-.334-.109a17.007,17.007,0,0,1,1.336,7.576l-.334-.109s.71,2.865-.894,9.823c0,0-1.47,3.258-.593,5.012l-.175.51a8.7,8.7,0,0,0-5.154-2.305l-.175.51s-4.937-1.854-5.713-2.865l-.109.334s-3.993-2.506-4.644-4.377l-.334.451s-2.6-2.756-2.356-5.672l-.393.334a38.709,38.709,0,0,1,.484-6.123l-.284.284S477.436,540.349,483.751,537.033Z" transform="translate(-175.129 -162.013)" fill="#407d3b" opacity="0.3"/>
  <path id="Path_23" data-name="Path 23" d="M483.367,537.95s8.061-1.27,11.168,1.863h-.518s3.057,3.283,3.466,6.2l-.309-.109a15.753,15.753,0,0,1,1.27,7.033l-.309-.109s.668,2.656-.835,9.1c0,0-1.362,3.015-.535,4.686l-.159.468a8.228,8.228,0,0,0-4.828-2.155l-.159.468s-4.628-1.729-5.346-2.665l-.109.309s-3.734-2.305-4.352-4.076l-.317.418s-2.431-2.556-2.214-5.262l-.368.317a35.219,35.219,0,0,1,.434-5.672l-.259.259S477.478,540.974,483.367,537.95Z" transform="translate(-175.03 -162.152)" fill="#57b894"/>
  <path id="Path_24" data-name="Path 24" d="M494.822,562.661a62.08,62.08,0,0,1-8.353-13.682c-3.216,3.742.835,11.16.835,11.16-4.335-5.947-1.671-10.633-1.019-11.577a35.442,35.442,0,0,1-1.8-5.488c-2.748,1.253-2.138,8.629-2.138,8.629-1.228-6.164,1.2-8.353,2.072-8.929a23.123,23.123,0,0,1-.568-4.8s.526,2.08,1.562,5.179c1.478-.251,6.457-.585,10.141,5.321,0,0-5.363-6.524-10.024-4.962.568,1.671,1.286,3.7,2.147,5.847,1.562.184,6.332,1.278,8.253,7.86,0,0-3.3-7.518-8.111-7.518a60.883,60.883,0,0,0,7.008,12.964Z" transform="translate(-175.598 -162.121)" fill="#407d3b" opacity="0.3"/>
  <path id="Path_25" data-name="Path 25" d="M602.589,639.31s-25.894,11.644-26.279,37.471" transform="translate(-204.441 -181.377)" fill="none" stroke="#57b894" stroke-miterlimit="10" stroke-width="6"/>
  <path id="Path_26" data-name="Path 26" d="M602.589,639.31s-25.894,11.644-26.279,37.471" transform="translate(-204.441 -181.377)" fill="none" stroke="#407d3b" stroke-miterlimit="10" stroke-width="6" opacity="0.3"/>
  <path id="Path_27" data-name="Path 27" d="M614.4,631.767s-7.977,15.2-3.817,23.5l.351-1.036s4.5,8.286,10.024,11.051v-.66a33.128,33.128,0,0,0,13.173,7.259v-.693s4.853,3.116,18.727,4.494c0,0,6.933-.693,9.706,2.071h1.044a17.248,17.248,0,0,1-1.044-11.051h1.044s-.351-10.366-1.737-12.438h.693s-2.08-8.988-5.2-11.4l1.044-.351s-3.4-6.6-8.979-7.96l.835-.518s-7.8-2.6-11.611-2.94l.693-.342S624.457,622.094,614.4,631.767Z" transform="translate(-216.681 -179.391)" fill="#57b894"/>
  <path id="Path_28" data-name="Path 28" d="M614.4,631.767s-7.977,15.2-3.817,23.5l.351-1.036s4.5,8.286,10.024,11.051v-.66a33.128,33.128,0,0,0,13.173,7.259v-.693s4.853,3.116,18.727,4.494c0,0,6.933-.693,9.706,2.071h1.044a17.248,17.248,0,0,1-1.044-11.051h1.044s-.351-10.366-1.737-12.438h.693s-2.08-8.988-5.2-11.4l1.044-.351s-3.4-6.6-8.979-7.96l.835-.518s-7.8-2.6-11.611-2.94l.693-.342S624.457,622.094,614.4,631.767Z" transform="translate(-216.681 -179.391)" fill="#407d3b" opacity="0.3"/>
  <path id="Path_29" data-name="Path 29" d="M614.183,631.581s-7.635,14.609-3.65,22.553l.334-.994s4.31,7.969,9.623,10.617v-.66a31.741,31.741,0,0,0,12.613,6.966v-.66s4.644,2.99,17.925,4.318c0,0,6.632-.668,9.289,1.988h.994a16.706,16.706,0,0,1-.994-10.625h.994s-.326-9.957-1.671-11.945h.66s-1.988-8.629-5.012-10.951l.994-.334s-3.341-6.306-8.629-7.635l.835-.493s-7.468-2.506-11.118-2.823l.66-.334S623.806,622.292,614.183,631.581Z" transform="translate(-216.478 -179.342)" fill="#57b894"/>
  <path id="Path_30" data-name="Path 30" d="M655.3,669.3a125.658,125.658,0,0,0-20.807-24.75c9.23-3.734,20.807,8.821,20.807,8.821-8.578-12.129-19.262-10.024-21.492-9.422a70.82,70.82,0,0,0-9.33-6.975c4.177-4.461,17.875,1.453,17.875,1.453-10.992-6.323-16.756-3.082-18.377-1.779a46.41,46.41,0,0,0-8.812-4.177s3.634,2.364,8.9,6.323c-1.437,2.665-5.287,11.97,3.625,22.82,0,0-9.013-14.442-3.024-22.361,2.9,2.2,6.248,4.853,9.748,7.852-.668,3.107-1.671,12.939,9.706,20.882,0,0-12.271-11.16-9.121-20.339C642.115,653.8,649.775,661.313,655.3,669.3Z" transform="translate(-217.183 -180.079)" fill="#407d3b" opacity="0.3"/>
  <path id="Path_31" data-name="Path 31" d="M602.76,626.292s1.119-17.132-6.048-23.021l.1,1.086s-7.518-5.747-13.674-6.023l.276.635a33.145,33.145,0,0,0-14.985-1.286l.284.626s-5.705-.835-18.936,3.5c0,0-6.064,3.441-9.723,2.038l-.944.426a17.349,17.349,0,0,1,5.438,9.681l-.952.426s4.519,9.33,6.632,10.667l-.635.276s5.546,7.367,9.38,8.353l-.835.735s5.847,4.594,11.469,3.608l-.585.835s8.178-.835,11.811-2.03l-.5.593S597.489,639.189,602.76,626.292Z" transform="translate(-196.218 -173.58)" fill="#57b894"/>
  <path id="Path_32" data-name="Path 32" d="M602.76,626.292s1.119-17.132-6.048-23.021l.1,1.086s-7.518-5.747-13.674-6.023l.276.635a33.145,33.145,0,0,0-14.985-1.286l.284.626s-5.705-.835-18.936,3.5c0,0-6.064,3.441-9.723,2.038l-.944.426a17.349,17.349,0,0,1,5.438,9.681l-.952.426s4.519,9.33,6.632,10.667l-.635.276s5.546,7.367,9.38,8.353l-.835.735s5.847,4.594,11.469,3.608l-.585.835s8.178-.835,11.811-2.03l-.5.593S597.489,639.189,602.76,626.292Z" transform="translate(-196.218 -173.58)" fill="#407d3b" opacity="0.3"/>
  <path id="Path_33" data-name="Path 33" d="M603.6,626.565s1.052-16.439-5.847-22.11l.1,1.052s-7.175-5.53-13.106-5.847l.267.61a31.742,31.742,0,0,0-14.35-1.253l.267.6s-5.463-.835-18.134,3.341c0,0-5.8,3.3-9.3,1.955l-.911.4a16.706,16.706,0,0,1,5.221,9.305l-.91.4s4.385,8.988,6.39,10.283l-.61.267s5.321,7.083,9,7.994l-.777.7s5.6,4.419,10.984,3.475l-.551.794s7.835-.752,11.3-1.93l-.468.568S598.572,638.969,603.6,626.565Z" transform="translate(-197.063 -173.8)" fill="#57b894"/>
  <path id="Path_34" data-name="Path 34" d="M553.79,610.44a125.912,125.912,0,0,0,29.06,14.2c-6.916,7.159-22.595.393-22.595.393,12.763,7.6,21.718,1.336,23.464-.117a71.889,71.889,0,0,0,11.36,2.589c-2,5.772-16.932,5.922-16.932,5.922,12.613,1.311,16.564-3.984,17.541-5.847a46.02,46.02,0,0,0,9.748.251s-4.277-.685-10.7-2.172c.234-3.015,0-13.081-12.571-19.379,0,0,14.1,9.547,11.844,19.212-3.542-.835-7.685-1.9-12.1-3.224-.652-3.107-3.742-12.529-17.332-15.119,0,0,15.737,5.221,16.581,14.893C572.133,619.277,562.068,615.468,553.79,610.44Z" transform="translate(-199.698 -174.968)" fill="#407d3b" opacity="0.3"/>
  <path id="Path_35" data-name="Path 35" d="M615.71,630.037s8.286,2.815,12.112.05L627.27,630s3.809-2.949,4.745-5.981l-.342.058a17.091,17.091,0,0,0,2.581-7.259l-.351.058s1.169-2.706.743-9.84c0,0-.9-3.458.259-5.087l-.083-.526a8.754,8.754,0,0,1-5.471,1.412l-.083-.526s-5.179,1.011-6.106,1.879l-.058-.359s-4.344,1.779-5.3,3.55l-.259-.5s-3.024,2.289-3.266,5.2l-.334-.393a39.019,39.019,0,0,0-.535,6.114l-.226-.326S610.038,625.719,615.71,630.037Z" transform="translate(-214.845 -174.108)" fill="#57b894"/>
  <path id="Path_36" data-name="Path 36" d="M615.71,630.037s8.286,2.815,12.112.05L627.27,630s3.809-2.949,4.745-5.981l-.342.058a17.091,17.091,0,0,0,2.581-7.259l-.351.058s1.169-2.706.743-9.84c0,0-.9-3.458.259-5.087l-.083-.526a8.754,8.754,0,0,1-5.471,1.412l-.083-.526s-5.179,1.011-6.106,1.879l-.058-.359s-4.344,1.779-5.3,3.55l-.259-.5s-3.024,2.289-3.266,5.2l-.334-.393a39.019,39.019,0,0,0-.535,6.114l-.226-.326S610.038,625.719,615.71,630.037Z" transform="translate(-214.845 -174.108)" fill="#407d3b" opacity="0.3"/>
  <path id="Path_37" data-name="Path 37" d="M615.444,629.6s7.735,2.6,11.327,0l-.51-.083s3.558-2.731,4.444-5.538l-.326.05a15.711,15.711,0,0,0,2.422-6.682l-.317.05s1.094-2.506.71-9.1c0,0-.835-3.2.251-4.7l-.084-.493a8.226,8.226,0,0,1-5.12,1.32l-.075-.484s-4.845.936-5.713,1.737l-.058-.317s-4.06,1.671-4.97,3.291l-.234-.468s-2.832,2.122-3.066,4.82l-.309-.368a35.494,35.494,0,0,0-.51,5.663l-.217-.3S610.14,625.62,615.444,629.6Z" transform="translate(-214.716 -174.378)" fill="#57b894"/>
  <path id="Path_38" data-name="Path 38" d="M630.92,607.86a62.274,62.274,0,0,0-10.491,12.112c-2.506-4.227,2.69-10.859,2.69-10.859-5.262,5.145-3.4,10.207-2.932,11.251a34.612,34.612,0,0,0-2.681,5.112c-2.506-1.671-.685-8.862-.685-8.862-2.23,5.847-.2,8.436.568,9.146a22.4,22.4,0,0,0-1.362,4.636s.835-1.963,2.4-4.845c1.42.493,6.273,1.671,10.859-3.558,0,0-6.365,5.538-10.708,3.224.835-1.587,1.888-3.433,3.082-5.379,1.57.083,6.465-.2,9.447-6.382,0,0-4.5,6.874-9.247,6.056a61.429,61.429,0,0,1,9.063-11.652Z" transform="translate(-215.279 -175.167)" fill="#407d3b" opacity="0.3"/>
  <path id="Path_39" data-name="Path 39" d="M611.243,635.133s-8.637-1.4-11.953,1.963h.56s-3.258,3.542-3.684,6.682l.334-.109a17.09,17.09,0,0,0-1.345,7.585l.334-.117s-.7,2.865.9,9.831c0,0,1.47,3.258.593,5.012l.167.5a8.754,8.754,0,0,1,5.162-2.3l.167.5s4.945-1.854,5.713-2.865l.117.342s3.984-2.506,4.644-4.385l.334.451s2.6-2.748,2.356-5.672l.393.334a38.561,38.561,0,0,0-.485-6.114l.276.276S617.575,638.449,611.243,635.133Z" transform="translate(-209.609 -180.412)" fill="#57b894"/>
  <path id="Path_40" data-name="Path 40" d="M611.243,635.033s-8.637-1.4-11.953,1.963h.56s-3.258,3.533-3.684,6.682l.334-.109a17.074,17.074,0,0,0-1.345,7.576l.334-.109s-.7,2.865.9,9.823c0,0,1.47,3.258.593,5.012l.167.51a8.737,8.737,0,0,1,5.162-2.305l.167.509s4.945-1.854,5.713-2.865l.117.334s3.984-2.506,4.644-4.377l.334.451s2.6-2.756,2.356-5.672l.393.334a38.715,38.715,0,0,0-.484-6.123l.276.284S617.575,638.349,611.243,635.033Z" transform="translate(-209.609 -180.393)" fill="#407d3b" opacity="0.3"/>
  <path id="Path_41" data-name="Path 41" d="M611.892,635.95s-8.061-1.27-11.176,1.863h.518s-3.057,3.283-3.458,6.2l.309-.109a15.87,15.87,0,0,0-1.278,7.033l.317-.109s-.668,2.656.835,9.1c0,0,1.362,3.015.535,4.686l.159.468a8.228,8.228,0,0,1,4.828-2.155l.159.468s4.619-1.729,5.346-2.665l.109.309s3.734-2.305,4.352-4.076l.317.418s2.431-2.556,2.214-5.262l.367.317a36.25,36.25,0,0,0-.434-5.672l.259.259S617.781,638.974,611.892,635.95Z" transform="translate(-209.993 -180.523)" fill="#57b894"/>
  <path id="Path_42" data-name="Path 42" d="M601.553,660.661a62.076,62.076,0,0,0,8.353-13.682c3.216,3.742-.835,11.16-.835,11.16,4.335-5.947,1.671-10.633,1.019-11.577a35.414,35.414,0,0,0,1.8-5.488c2.756,1.253,2.147,8.629,2.147,8.629,1.228-6.164-1.2-8.353-2.08-8.929a22.552,22.552,0,0,0,.576-4.8s-.535,2.08-1.562,5.179c-1.478-.251-6.457-.585-10.141,5.321,0,0,5.354-6.524,10.024-4.962-.576,1.671-1.286,3.7-2.147,5.847-1.562.184-6.34,1.278-8.253,7.86,0,0,3.341-7.518,8.111-7.518a61.257,61.257,0,0,1-7.008,12.964Z" transform="translate(-210.625 -180.475)" fill="#407d3b" opacity="0.3"/>
  <path id="Path_43" data-name="Path 43" d="M727.378,552.22a376.274,376.274,0,0,1-7.952,49.1c-1.838,7.835-3.859,15.085-6.006,21.8l-1.671,5.012q-1.854,5.438-3.817,10.391a127.4,127.4,0,0,1-90.663,77.465C537.2,733.9,482.26,699.282,482.26,699.282c-34.339-21.5-50.7-50.728-58.12-77.457-.4-1.462-.785-2.907-1.128-4.352-.877-3.567-1.6-7.067-2.18-10.491-5.221-30.547,0-54.687,0-54.687C528.051,599.857,727.378,552.22,727.378,552.22Z" transform="translate(-180.167 -170.271)" fill="#a1c4f5" opacity="0.7"/>
  <path id="Path_44" data-name="Path 44" d="M714.313,635.97q-2.623,8.219-5.463,15.361A127.4,127.4,0,0,1,618.187,728.8c-80.072,17.909-135.009-16.706-135.009-16.706-36.21-22.67-52.432-53.935-59.248-81.8C449.407,639.578,578.652,681.836,714.313,635.97Z" transform="translate(-179.977 -183.13)" fill="#fcc329" opacity="0.5"/>
  <path id="Path_45" data-name="Path 45" d="M799.718,597.35a35.409,35.409,0,0,0-22.378,7.768q-.593,2.748-1.219,5.4c-1.838,7.835-3.859,15.094-6.006,21.8l-1.671,5.012-.284.835c4.678,11.694,17.023,20.047,31.532,20.047,18.518,0,33.529-13.615,33.529-30.4S818.236,597.35,799.718,597.35Zm0,52.691c-13.582,0-24.591-9.982-24.591-22.294s11.009-22.294,24.591-22.294,24.591,10.024,24.591,22.294S813.3,650.04,799.718,650.04Z" transform="translate(-265.847 -173.997)" fill="#a1c4f5"/>
  <path id="Path_46" data-name="Path 46" d="M443.786,509.7a8.1,8.1,0,0,1-.593-1.671c-.067-.66.184-1.529-.393-1.838-.326-.175-.777,0-1.061-.276a1.286,1.286,0,0,1-.317-.727,2.506,2.506,0,0,0-2.322-1.813c.626-1.671,2.865-2.072,3.851-3.533.5-.727.342-2.072-.535-2.08a1.605,1.605,0,0,0-.593.159l-3.266,1.345a16.762,16.762,0,0,0-1.846.835,14.45,14.45,0,0,0-4.344,4.369,19.044,19.044,0,0,0-2.7,4.912,11.11,11.11,0,0,0-.576,3.341c0,.117,0,.234,0,.342-.526.092-.961.326-1.52.434-.426,1.119-.835,2.239-1.27,3.341a4.175,4.175,0,0,1-.835,1.529,6.622,6.622,0,0,1-.894.7,5.187,5.187,0,0,0-1.779,4.519,4.853,4.853,0,0,0-2.857,5.981,5.7,5.7,0,0,0-4.177,3.692,2.69,2.69,0,0,1-.543,1.144,2.188,2.188,0,0,1-1.453.451c-1.428.092-2.681,1.22-3.976.61a8.053,8.053,0,0,0-4.719-.668,3.43,3.43,0,0,1-1.011.092,2.505,2.505,0,0,1-.835-.292,6.815,6.815,0,0,0-1.879-.735,1.746,1.746,0,0,0-1.771.685c-.459-.493-.727-1.136-1.144-1.671a1.813,1.813,0,0,0-1.721-.835c.434-.384,0-1.153-.568-1.295a7.023,7.023,0,0,0-1.721.067c-1.5,0-2.648-1.378-4.093-1.737s-3.116.067-3.8-1.128c-.226-.384-.284-.894-.593-1.178a2.255,2.255,0,0,0-.434-.885,2.873,2.873,0,0,0-2.305-.685,9.186,9.186,0,0,0-2.673.459,3,3,0,0,0-.092-.342,6.757,6.757,0,0,0-2.965-3.642,12.263,12.263,0,0,0-3.508-1.428v-.326a13.8,13.8,0,0,1,.71-4.552c.05-.159.109-.317.167-.476a16.3,16.3,0,0,0,7.326-27.331,5.052,5.052,0,0,0-.125-.977,4.828,4.828,0,0,0-.986-1.9,6,6,0,0,0-3.4-3.1c-.426-.209-.877-.4-1.353-.618-2.372-1.069-4.661-2.64-7.351-2.631-2.456,0-4.811,1.353-7.234,1.3h-.585c-.685-.084-1.5-.242-1.946.284a3.146,3.146,0,0,0-.342.668,1.515,1.515,0,0,1-.125.225h0a2.163,2.163,0,0,1-.309.418h0a11.44,11.44,0,0,1-3.182,1.8,9.731,9.731,0,0,0-4.694,6.5,20.531,20.531,0,0,0,.067,8.228,6.783,6.783,0,0,0,1.737,3.759h0s-8.186,5.847-6.682,6.682c.835.443,4.176-1.671,7.125-3.75a1.545,1.545,0,0,0,.092.376,27.321,27.321,0,0,0,1.336,3.826c.618,1.462,1.487,3.04,3.015,3.483a3.59,3.59,0,0,0,1.036.117h.267a24.139,24.139,0,0,1-.7,6.682,4.06,4.06,0,0,0-2.506.693,2.071,2.071,0,0,1-1.011.543,1.8,1.8,0,0,1-1.052-.518,5.939,5.939,0,0,0-7.434.393c-2.965,2.79-2.631,8.253-6.106,10.374-.952.585-2.18.894-2.74,1.871a6.478,6.478,0,0,1-.468.894,2.5,2.5,0,0,1-.835.6,15.971,15.971,0,0,0-2.865,1.671,4.177,4.177,0,0,0-1.671,2.782,5.288,5.288,0,0,0,.51,2.33,22.037,22.037,0,0,0,1.9,3.659,3.867,3.867,0,0,0-.768,1.8c-.251,1.721.576,3.416.668,5.154a19.321,19.321,0,0,1-.677,4.5c-1.078,5.847.986,11.753,3.091,17.3a8.964,8.964,0,0,1,.735,2.848c.05,1.813-.986,3.467-1.27,5.254-.593,3.767,2.163,7.3,2.222,11.109,0,1.754-.526,3.533-.092,5.237a19.115,19.115,0,0,0,1.5,3.157c.885,1.871,1.128,4,1.971,5.847a14.05,14.05,0,0,0,4.36,5.2c1.061,3.341-.451,7.418,0,10.993.576-.226,1.161-.434,1.737-.643a25.2,25.2,0,0,0,3.867,15.211,35.551,35.551,0,0,1,2.773,4.477,20.985,20.985,0,0,1,1.086,3.55q1.537,6.407,3.074,12.805c.835,3.458,1.671,6.983,1.42,10.533-.175,2.506-.794,5.254.718,7.209a5.01,5.01,0,0,1,.919,1.261,3.2,3.2,0,0,1,0,1.671,111.515,111.515,0,0,0-1.52,12.529c-.342.459-.685.919-.994,1.387-2.506,3.675-3.734,8.086-4.711,12.438a149.962,149.962,0,0,0-3.157,25.986,17.544,17.544,0,0,0-3.224,3.926c-1.32,2.447-1.487,5.321-1.629,8.1a2.882,2.882,0,0,0,.15,1.336,2.731,2.731,0,0,0,1.387,1.161l.76.359c-.167.61-.309,1.236-.443,1.863-.961-1.086-2.69-2.815-2.982-1.545a62.255,62.255,0,0,0-1.562,12.855,1.086,1.086,0,0,0,1.161,1.3,71.657,71.657,0,0,0,12.805,1.036c3.458,0,6.916-.284,10.366-.543l3.525-.276a76.839,76.839,0,0,0,10.817-1.345,8.963,8.963,0,0,0,4.352-1.921,3.7,3.7,0,0,0,.944-4.352h0c-.986-1.671-3.283-1.8-5.212-2.072a17,17,0,0,1-5.455-1.737c-.393-.2-.76-.418-1.136-.635l.292-.084c1.671-.56,2.965-1.829,4.527-2.606a18.311,18.311,0,0,1,5.847-1.345,12.739,12.739,0,0,0,5.713-1.746,5.012,5.012,0,0,0,2.3-4.828,1.609,1.609,0,0,0-.092-.384c-.618-1.98-2.756-3.024-4.761-3.55s-4.177-.785-5.78-2.071l-.234-.192c-.134-.109-.276-.226-.426-.334a3.341,3.341,0,0,0,.476-2,10.09,10.09,0,0,0-1.161-3.082,22.044,22.044,0,0,1-1.144-6.357c-.576-5.4-2.239-10.625-3.492-15.912q-.209-.9-.4-1.8a38.6,38.6,0,0,1,4.444-7.133,23.2,23.2,0,0,0,4.268-8.428c.259-.944.451-1.9.643-2.857q3.341-16.581,6.29-33.228a27.393,27.393,0,0,0,.56-4.8,14.442,14.442,0,0,0,.835-4.544c.576-2.247,1.161-4.6.693-6.081a58.218,58.218,0,0,1-.685-8.011,30.67,30.67,0,0,0-.334-5.463c-.05-.309-.109-.618-.184-.927a2.987,2.987,0,0,0-.109-.451,15.693,15.693,0,0,0-1.078-2.982,12.2,12.2,0,0,0-.835-1.671,7.513,7.513,0,0,0-.618-.911c1.278.058,2.548.167,3.809.351.309.05.693.075.877-.184a.835.835,0,0,0,.117-.459,7.777,7.777,0,0,0-.994-4.177,5.357,5.357,0,0,1-1.144-2.715,3.976,3.976,0,0,1,.334-1.345l1.671-4.561c1.437-3.842.752-8.311,1.5-12.354a71.83,71.83,0,0,0,1.119-9.556c.142-2.74.05-5.705-1.6-7.894a9.543,9.543,0,0,1-1.236-1.737,5.311,5.311,0,0,1-.3-2.08q0-6.44.259-12.864a126.2,126.2,0,0,0,21.467-2.431,14.38,14.38,0,0,0,2.439-.652,13.2,13.2,0,0,0,2.506-1.554,31.5,31.5,0,0,0,6.682-5.847A19.654,19.654,0,0,0,432.092,535c1.746-1.612,2.665-3.909,3.542-6.114a9.366,9.366,0,0,0,.835-2.974c.05-1.052-.643-2.155-.451-3.191a8.42,8.42,0,0,1,2.564-4.636,1.729,1.729,0,0,0,.61-.835,1.328,1.328,0,0,0-.142-.835.5.5,0,0,1-.05-.092l.493-.326c.568-.4,1.111-.835,1.671-1.286a10.141,10.141,0,0,0,2.138-2.172A3.516,3.516,0,0,0,443.786,509.7ZM365.269,744.414a3.631,3.631,0,0,0-.434,0,5.4,5.4,0,0,0-1.554.443l-.117.058q1.019-2.188,1.879-4.444l.2-.535-.075,1a12.413,12.413,0,0,0,.1,3.45Z" transform="translate(-135.518 -158.101)" fill="url(#linear-gradient)"/>
  <path id="Path_47" data-name="Path 47" d="M378.537,526.823c.058,2.372.835,4.678.994,7.05-7,.351-13.908-3.049-20.841-2,1.938-1.253,2.974-3.517,3.583-5.739a23.982,23.982,0,0,0,.685-8.821,2.965,2.965,0,0,0-.092-.493c-.251-1.161-.919-2.807-.743-3.717.234-1.211,1.378-.977,2.406-.9a90.488,90.488,0,0,1,9.347,1.2c.835.142,8.654,2.1,8.771,1.9a36.828,36.828,0,0,0-3.4,7A13.657,13.657,0,0,0,378.537,526.823Z" transform="translate(-139.587 -157.234)" fill="#a1616a"/>
  <path id="Path_48" data-name="Path 48" d="M462.567,518.018a10.257,10.257,0,0,1-2.138,2.155c-.535.434-1.078.835-1.671,1.278a7.108,7.108,0,0,1-3.508,1.428c-1.671.109-5.2-.835-6.24-2.3a4.177,4.177,0,0,1-.6-2.389,11.051,11.051,0,0,1,.576-3.341,18.9,18.9,0,0,1,2.7-4.886,14.425,14.425,0,0,1,4.344-4.335,16.765,16.765,0,0,1,1.846-.835l3.266-1.337a1.6,1.6,0,0,1,.593-.159c.877,0,1.036,1.345.535,2.072-.986,1.453-3.224,1.854-3.851,3.508a2.506,2.506,0,0,1,2.322,1.8,1.286,1.286,0,0,0,.317.727c.284.234.735.1,1.061.276.576.309.326,1.169.393,1.821a8.1,8.1,0,0,0,.593,1.671,3.491,3.491,0,0,1-.535,2.84Z" transform="translate(-165.712 -155.547)" fill="#a1616a"/>
  <path id="Path_49" data-name="Path 49" d="M349.8,804.138a2.506,2.506,0,0,1,2.172-.326,79.728,79.728,0,0,0,12.2.986c.51-2.506-.977-4.928-1.453-7.434a6.766,6.766,0,0,0-.484-1.879,4.294,4.294,0,0,0-3.091-1.871c-2.205-.468-5.647-1.286-6.875.944C350.8,797.23,350.335,801.173,349.8,804.138Z" transform="translate(-136.526 -209.94)" fill="#65617d"/>
  <path id="Path_50" data-name="Path 50" d="M398.17,792.649a12.946,12.946,0,0,1-5.713,1.737,18.292,18.292,0,0,0-5.847,1.336c-1.562.768-2.873,2.038-4.527,2.589a9.4,9.4,0,0,1-4.694.075c-1.854-.351-3.834-1.027-4.836-2.631-.894-1.42-.794-3.233-.677-4.9.15-1.9.284-3.792.426-5.7a2.656,2.656,0,0,1,.351-1.37c1.345-1.955,4.6.835,6.348.835a12.287,12.287,0,0,0,7.735-3.341,2.106,2.106,0,0,1,.6-.451c.785-.359,1.57.292,2.272.835l.234.192c1.62,1.278,3.792,1.537,5.78,2.055s4.176,1.562,4.761,3.533a2.056,2.056,0,0,0,.092.376,5.012,5.012,0,0,1-2.305,4.828Z" transform="translate(-143.711 -207.907)" fill="#3f3d56"/>
  <path id="Path_51" data-name="Path 51" d="M398.17,792.649a12.946,12.946,0,0,1-5.713,1.737,18.292,18.292,0,0,0-5.847,1.336c-1.562.768-2.873,2.038-4.527,2.589a9.4,9.4,0,0,1-4.694.075c-1.854-.351-3.834-1.027-4.836-2.631-.894-1.42-.794-3.233-.677-4.9.15-1.9.284-3.792.426-5.7a2.656,2.656,0,0,1,.351-1.37c1.345-1.955,4.6.835,6.348.835a12.287,12.287,0,0,0,7.735-3.341,2.106,2.106,0,0,1,.6-.451c.785-.359,1.57.292,2.272.835l.234.192c1.62,1.278,3.792,1.537,5.78,2.055s4.176,1.562,4.761,3.533a2.056,2.056,0,0,0,.092.376,5.012,5.012,0,0,1-2.305,4.828Z" transform="translate(-143.711 -207.907)" fill="#3f3d56"/>
  <path id="Path_52" data-name="Path 52" d="M398.17,793.3a12.838,12.838,0,0,1-5.713,1.737,18.516,18.516,0,0,0-5.847,1.336c-1.562.777-2.873,2.038-4.527,2.589a9.4,9.4,0,0,1-4.694.075,7.777,7.777,0,0,1-4.836-3.266c-.894-1.42-.794-3.233-.677-4.9.15-1.9.284-3.792.426-5.7a2.656,2.656,0,0,1,.351-1.37c1.345-1.955,4.6.835,6.348.835a12.287,12.287,0,0,0,7.735-3.341,2.1,2.1,0,0,1,.6-.451c.785-.359,1.57.292,2.272.835a16.02,16.02,0,0,1-1.938,4.009,8.353,8.353,0,0,1-6.1,3.817,20.17,20.17,0,0,0-3.7.159c-1.194.317-2.305,1.545-1.879,2.706s1.871,1.378,3.082,1.445a13.683,13.683,0,0,0,5.012-.351,30.487,30.487,0,0,0,2.832-1.261c4.06-1.671,9.188-.743,12.529-3.583a8.486,8.486,0,0,1,1.019-.785C401.344,789.7,399.724,792.243,398.17,793.3Z" transform="translate(-143.721 -207.91)" fill="#e8eaf2"/>
  <path id="Path_53" data-name="Path 53" d="M398.17,793.3a12.838,12.838,0,0,1-5.713,1.737,18.516,18.516,0,0,0-5.847,1.336c-1.562.777-2.873,2.038-4.527,2.589a9.4,9.4,0,0,1-4.694.075,7.777,7.777,0,0,1-4.836-3.266c-.894-1.42-.794-3.233-.677-4.9.15-1.9.284-3.792.426-5.7a2.656,2.656,0,0,1,.351-1.37c1.345-1.955,4.6.835,6.348.835a12.287,12.287,0,0,0,7.735-3.341,2.1,2.1,0,0,1,.6-.451c.785-.359,1.57.292,2.272.835a16.02,16.02,0,0,1-1.938,4.009,8.353,8.353,0,0,1-6.1,3.817,20.17,20.17,0,0,0-3.7.159c-1.194.317-2.305,1.545-1.879,2.706s1.871,1.378,3.082,1.445a13.683,13.683,0,0,0,5.012-.351,30.487,30.487,0,0,0,2.832-1.261c4.06-1.671,9.188-.743,12.529-3.583a8.486,8.486,0,0,1,1.019-.785C401.344,789.7,399.724,792.243,398.17,793.3Z" transform="translate(-143.721 -207.91)" opacity="0.05"/>
  <path id="Path_54" data-name="Path 54" d="M350.6,645.8a24.917,24.917,0,0,0,3.425,18.377,34.686,34.686,0,0,1,2.773,4.452,20.582,20.582,0,0,1,1.086,3.533l3.074,12.738c.835,3.441,1.671,6.941,1.42,10.475-.175,2.456-.794,5.221.718,7.167a5.01,5.01,0,0,1,.919,1.261,3.166,3.166,0,0,1,0,1.671c-1.562,9.247-2.715,18.92.1,27.866,2.548,8.111,2.7,17.1,4.861,25.318a5.655,5.655,0,0,0,1.345,2.807,4.46,4.46,0,0,0,2.021.961c3.191.76,6.565-.134,9.547-1.512,2.1-.969,4.344-2.673,4.176-4.97a10.082,10.082,0,0,0-1.161-3.065,21.977,21.977,0,0,1-1.144-6.332c-.576-5.371-2.239-10.558-3.492-15.82s-2.088-10.792-1.019-16.054a140.749,140.749,0,0,1,10.333-31.783,3.851,3.851,0,0,1,.944-1.42,10.244,10.244,0,0,0,1.345-.911,4.06,4.06,0,0,0,.61-1.671c.468-1.671,1.846-2.915,2.773-4.385,2.347-3.725,1.6-8.495,1.52-12.889s.526-8.6-.175-12.813-3.116-8.528-7.184-9.848a15.5,15.5,0,0,0-6.3-.3C371.935,639.747,361.085,641.793,350.6,645.8Z" transform="translate(-138.083 -184.476)" fill="#3f3d56"/>
  <path id="Path_55" data-name="Path 55" d="M350.6,645.8a24.917,24.917,0,0,0,3.425,18.377,34.686,34.686,0,0,1,2.773,4.452,20.582,20.582,0,0,1,1.086,3.533l3.074,12.738c.835,3.441,1.671,6.941,1.42,10.475-.175,2.456-.794,5.221.718,7.167a5.01,5.01,0,0,1,.919,1.261,3.166,3.166,0,0,1,0,1.671c-1.562,9.247-2.715,18.92.1,27.866,2.548,8.111,2.7,17.1,4.861,25.318a5.655,5.655,0,0,0,1.345,2.807,4.46,4.46,0,0,0,2.021.961c3.191.76,6.565-.134,9.547-1.512,2.1-.969,4.344-2.673,4.176-4.97a10.082,10.082,0,0,0-1.161-3.065,21.977,21.977,0,0,1-1.144-6.332c-.576-5.371-2.239-10.558-3.492-15.82s-2.088-10.792-1.019-16.054a140.749,140.749,0,0,1,10.333-31.783,3.851,3.851,0,0,1,.944-1.42,10.244,10.244,0,0,0,1.345-.911,4.06,4.06,0,0,0,.61-1.671c.468-1.671,1.846-2.915,2.773-4.385,2.347-3.725,1.6-8.495,1.52-12.889s.526-8.6-.175-12.813-3.116-8.528-7.184-9.848a15.5,15.5,0,0,0-6.3-.3C371.935,639.747,361.085,641.793,350.6,645.8Z" transform="translate(-138.083 -184.476)" opacity="0.05"/>
  <path id="Path_56" data-name="Path 56" d="M395.827,673.036a26.788,26.788,0,0,1-.568,4.945q-2.907,16.556-6.248,33.044c-.192.952-.384,1.9-.643,2.848a23.144,23.144,0,0,1-4.268,8.353c-9.289,11.594-10.124,28.392-15.136,42.341-.342.944-.677,1.888-1.044,2.823a71.408,71.408,0,0,1-3.132,6.925,1.988,1.988,0,0,1-.643.835,1.9,1.9,0,0,1-1.011.2,29.436,29.436,0,0,1-13.081-2.974,2.714,2.714,0,0,1-1.387-1.153,2.857,2.857,0,0,1-.15-1.328c.142-2.765.309-5.63,1.629-8.061a17.236,17.236,0,0,1,3.224-3.909,148.547,148.547,0,0,1,3.157-25.894c.977-4.327,2.189-8.712,4.711-12.371,1.854-2.706,4.511-5.379,4.176-8.637-.142-1.437-.743-3.224.426-4.06.51-.367,1.261-.418,1.6-.944a1.67,1.67,0,0,0,.226-.835,20.048,20.048,0,0,0-.409-6.682,35.8,35.8,0,0,1-1-4.36,5.538,5.538,0,0,1,1.1-4.177c.058-2.974,0-6.064,0-9.038a16.506,16.506,0,0,0-.418-5.012c-.226-.785-.568-1.529-.743-2.322-.618-2.865.936-6.29-.919-8.562a12.551,12.551,0,0,0-2.965-2.088,10.859,10.859,0,0,1-4.076-5.847,32.333,32.333,0,0,1-1.161-7.175,7.971,7.971,0,0,1,0-1.545,3.14,3.14,0,0,1,.209-.777c.576-1.295,2.122-1.8,3.5-2.13a113.185,113.185,0,0,1,26.729-3.116c3.341-2.264,5.2-1.462,6.607.944a24.669,24.669,0,0,1,1.888,4.594c.643,1.946.677,12.839,1.311,14.793C398.149,665.176,395.794,670.364,395.827,673.036Z" transform="translate(-137.7 -184.896)" fill="#3f3d56"/>
  <path id="Path_57" data-name="Path 57" d="M333.08,559.951c-.251,1.712.576,3.4.668,5.129a19.046,19.046,0,0,1-.677,4.469c-1.078,5.847.986,11.694,3.091,17.216a8.92,8.92,0,0,1,.735,2.832c.05,1.8-.986,3.45-1.27,5.229-.593,3.742,2.163,7.259,2.222,11.051,0,1.746-.526,3.517-.092,5.2a19.023,19.023,0,0,0,1.5,3.149c.885,1.863,1.128,3.976,1.971,5.847,1.52,3.4,4.8,5.622,7.919,7.66,1.779-.585,3.692-1.295,4.669-2.89a7.025,7.025,0,0,0,.835-2.506,65.87,65.87,0,0,0,.626-11.761,71.991,71.991,0,0,0-.535-10.132c-.626-4.268-2.013-8.353-3.007-12.588-1.261-5.3-1.9-10.775-3.851-15.871a54.1,54.1,0,0,0-7.209-12.321c-1.069-1.462-1.921-3.558-4-3.224A4.36,4.36,0,0,0,333.08,559.951Z" transform="translate(-131.826 -166.488)" fill="#ff0073"/>
  <path id="Path_58" data-name="Path 58" d="M333.08,559.951c-.251,1.712.576,3.4.668,5.129a19.046,19.046,0,0,1-.677,4.469c-1.078,5.847.986,11.694,3.091,17.216a8.92,8.92,0,0,1,.735,2.832c.05,1.8-.986,3.45-1.27,5.229-.593,3.742,2.163,7.259,2.222,11.051,0,1.746-.526,3.517-.092,5.2a19.023,19.023,0,0,0,1.5,3.149c.885,1.863,1.128,3.976,1.971,5.847,1.52,3.4,4.8,5.622,7.919,7.66,1.779-.585,3.692-1.295,4.669-2.89a7.025,7.025,0,0,0,.835-2.506,65.87,65.87,0,0,0,.626-11.761,71.991,71.991,0,0,0-.535-10.132c-.626-4.268-2.013-8.353-3.007-12.588-1.261-5.3-1.9-10.775-3.851-15.871a54.1,54.1,0,0,0-7.209-12.321c-1.069-1.462-1.921-3.558-4-3.224A4.36,4.36,0,0,0,333.08,559.951Z" transform="translate(-131.826 -166.488)" opacity="0.05"/>
  <path id="Path_59" data-name="Path 59" d="M383.322,515.3a36.827,36.827,0,0,0-3.4,7,16.33,16.33,0,0,1-3.859.468c-5.012,0-8.62-2.873-11.586-6.5-.259-1.169-1.854-2.255-1.671-3.166.234-1.211,1.378-.977,2.406-.9a90.473,90.473,0,0,1,9.347,1.2C375.353,513.541,383.205,515.5,383.322,515.3Z" transform="translate(-140.647 -157.056)" opacity="0.1"/>
  <circle id="Ellipse_7" data-name="Ellipse 7" cx="16.171" cy="16.171" r="16.171" transform="translate(219.157 333.184)" fill="#a1616a"/>
  <path id="Path_60" data-name="Path 60" d="M395.84,643.23a83.264,83.264,0,0,0-8.42.058,28.2,28.2,0,0,0-5.237.535c-2.122.484-4.11,1.453-6.2,2.055-3.341.977-6.9,1.019-10.374,1.362a58.569,58.569,0,0,0-6.791,1.069,3.141,3.141,0,0,1,.209-.777c.576-1.295,2.122-1.8,3.5-2.13a113.182,113.182,0,0,1,26.729-3.116C392.558,640.022,394.429,640.824,395.84,643.23Z" transform="translate(-140.234 -181.049)" opacity="0.1"/>
  <path id="Path_61" data-name="Path 61" d="M381.065,535.738c-.7.835-1.671,1.721-2.7,1.453a3.515,3.515,0,0,1-1.044-.56c-1.871-1.2-4.177-1.487-6.348-1.813a93.166,93.166,0,0,1-13.106-2.974A13.5,13.5,0,0,0,354,531.06c-2.74,0-5.171,1.838-6.891,3.976s-2.932,4.636-4.619,6.791c-1.2,1.545-2.631,2.9-3.75,4.494-2.832,4.043-3.441,9.305-2.706,14.2s2.673,9.472,4.6,14.008a48.586,48.586,0,0,0,3.767,7.584,18.067,18.067,0,0,0,1.453,11.268,11.077,11.077,0,0,1,1.47,3.341,8.352,8.352,0,0,1-.109,2.456l-.835,5.847c-.251,1.779-.5,3.558-.835,5.329-.593,3.241-1.4,6.766.1,9.7,1.8,3.508-.092,8.01.384,11.928a59.853,59.853,0,0,1,15.821-3.709c3.475-.343,7.016-.384,10.374-1.362,2.088-.61,4.076-1.57,6.2-2.055a28.207,28.207,0,0,1,5.237-.535,61.232,61.232,0,0,1,11.6.242c.309.042.693.067.877-.184a.835.835,0,0,0,.117-.459,7.718,7.718,0,0,0-.994-4.118,5.363,5.363,0,0,1-1.144-2.7,3.984,3.984,0,0,1,.334-1.336l1.671-4.536c1.437-3.826.752-8.269,1.5-12.287a71.268,71.268,0,0,0,1.111-9.464c.142-2.731.05-5.68-1.6-7.86a9.191,9.191,0,0,1-1.236-1.729,5.2,5.2,0,0,1-.3-2.063q-.05-8.194.451-16.363c-1.437-2.573-2.932-5.212-4.369-7.785a33.817,33.817,0,0,1-4.034-9.43c-.443-2.23-.434-4.519-.752-6.766a2.272,2.272,0,0,0-2.873-2.272A10.5,10.5,0,0,0,381.065,535.738Z" transform="translate(-134.505 -162.321)" fill="#ff0073"/>
  <path id="Path_62" data-name="Path 62" d="M458.788,524.31a7.109,7.109,0,0,1-3.508,1.428c-1.671.109-5.2-.835-6.24-2.3a4.177,4.177,0,0,1-.6-2.389,2.749,2.749,0,0,1,.7-.134,18.117,18.117,0,0,1,5.421.217,6.106,6.106,0,0,1,4.218,3.157S458.78,524.31,458.788,524.31Z" transform="translate(-165.465 -158.587)" opacity="0.1"/>
  <path id="Path_63" data-name="Path 63" d="M395.594,559.386a11.435,11.435,0,0,0,3.4,3.216,10.86,10.86,0,0,0,5.313.835,126.214,126.214,0,0,0,22.185-2.431,13.661,13.661,0,0,0,2.439-.66,12.694,12.694,0,0,0,2.506-1.537,31.574,31.574,0,0,0,6.682-5.847,19.479,19.479,0,0,0,3.9-9.706c1.746-1.6,2.665-3.884,3.542-6.081a9.188,9.188,0,0,0,.835-2.957c.05-1.044-.643-2.138-.451-3.166a8.4,8.4,0,0,1,2.564-4.619,1.746,1.746,0,0,0,.61-.835,1.328,1.328,0,0,0-.142-.835,6.131,6.131,0,0,0-4.218-3.157,18.167,18.167,0,0,0-5.429-.217,13.514,13.514,0,0,0-1.771.468l-1.27,3.341a4.177,4.177,0,0,1-.835,1.52,7.347,7.347,0,0,1-.894.7,5.129,5.129,0,0,0-1.779,4.486,4.828,4.828,0,0,0-2.857,5.956,5.7,5.7,0,0,0-4.176,3.667,2.6,2.6,0,0,1-.543,1.144,2.189,2.189,0,0,1-1.453.451c-1.428.083-2.681,1.211-3.976.6a8.119,8.119,0,0,0-4.719-.66,3.434,3.434,0,0,1-1.011.092,2.671,2.671,0,0,1-.835-.292,6.818,6.818,0,0,0-1.879-.735,1.746,1.746,0,0,0-1.771.685c-.459-.493-.727-1.136-1.144-1.671a1.813,1.813,0,0,0-1.721-.835c.434-.384,0-1.144-.568-1.286a7.458,7.458,0,0,0-1.721.067c-1.5,0-2.648-1.37-4.093-1.721s-3.116.058-3.8-1.128c-.242-.426-.292-1-.71-1.261a1.378,1.378,0,0,0-.9-.1,8.644,8.644,0,0,0-2.723.835c-1.4,5.48-.668,11.168.4,16.706a14.743,14.743,0,0,0,3.015,6.966Z" transform="translate(-151.088 -159.297)" fill="#ff0073"/>
  <path id="Path_64" data-name="Path 64" d="M394.991,590.036,388,604.077c.752-1.3,2.339-1.8,3.592-2.631a9.556,9.556,0,0,0,3.433-4.619,28.128,28.128,0,0,0,1.32-5.688c.142-.894.434-2.138,0-2.949C395.576,588.357,395.317,589.376,394.991,590.036Z" transform="translate(-147.538 -171.359)" opacity="0.1"/>
  <path id="Path_65" data-name="Path 65" d="M369.04,604.138a62.158,62.158,0,0,1-5.229,4.076c-4.034,3.216-6.916,7.626-9.723,11.961A18.681,18.681,0,0,0,352.1,623.8c.326.276.835,0,1.144-.3l5.455-4.8a12.682,12.682,0,0,0,1.821-1.846c.952-1.278,1.37-2.873,2.23-4.177a16.78,16.78,0,0,1,3.341-3.383c1.253-1.078,7.033-5.956,5.622-7.852C370.7,601.908,369.867,603.319,369.04,604.138Z" transform="translate(-137.444 -173.964)" opacity="0.1"/>
  <path id="Path_66" data-name="Path 66" d="M377.541,531.169a16.038,16.038,0,0,0-5.789-1.9,12.162,12.162,0,0,0-3.684-.267c-1.136.142-2.23.576-3.341.643a14.977,14.977,0,0,1-4.7-.986c-1.554-.426-3.341-.585-4.653.351a2,2,0,0,1-1.011.535,1.738,1.738,0,0,1-1.053-.51,5.964,5.964,0,0,0-7.434.393c-2.965,2.782-2.631,8.211-6.106,10.316-.952.585-2.18.894-2.74,1.863a6.974,6.974,0,0,1-.468.894,2.5,2.5,0,0,1-.835.593,16.446,16.446,0,0,0-2.865,1.671,4.176,4.176,0,0,0-1.671,2.765,5.287,5.287,0,0,0,.509,2.331A21.826,21.826,0,0,0,352.891,563.4a3.425,3.425,0,0,0,2.222-.693,4.268,4.268,0,0,0,.777-1.286c1.629-3.425,4.7-5.947,6.682-9.188,1.161-1.946,1.9-4.11,3.116-6.022,1.829-2.9,4.619-5.012,7.342-7.117,1.537-1.169,3.249-2.406,5.187-2.322,1.721.075,2.974.167,2.339-1.946A6.682,6.682,0,0,0,377.541,531.169Z" transform="translate(-132.516 -160.426)" fill="#ff0073"/>
  <path id="Path_67" data-name="Path 67" d="M377.541,531.169a16.038,16.038,0,0,0-5.789-1.9,12.162,12.162,0,0,0-3.684-.267c-1.136.142-2.23.576-3.341.643a14.977,14.977,0,0,1-4.7-.986c-1.554-.426-3.341-.585-4.653.351a2,2,0,0,1-1.011.535,1.738,1.738,0,0,1-1.053-.51,5.964,5.964,0,0,0-7.434.393c-2.965,2.782-2.631,8.211-6.106,10.316-.952.585-2.18.894-2.74,1.863a6.974,6.974,0,0,1-.468.894,2.5,2.5,0,0,1-.835.593,16.446,16.446,0,0,0-2.865,1.671,4.176,4.176,0,0,0-1.671,2.765,5.287,5.287,0,0,0,.509,2.331A21.826,21.826,0,0,0,352.891,563.4a3.425,3.425,0,0,0,2.222-.693,4.268,4.268,0,0,0,.777-1.286c1.629-3.425,4.7-5.947,6.682-9.188,1.161-1.946,1.9-4.11,3.116-6.022,1.829-2.9,4.619-5.012,7.342-7.117,1.537-1.169,3.249-2.406,5.187-2.322,1.721.075,2.974.167,2.339-1.946A6.682,6.682,0,0,0,377.541,531.169Z" transform="translate(-132.516 -160.426)" opacity="0.05"/>
  <path id="Path_68" data-name="Path 68" d="M388.285,809.849a9.021,9.021,0,0,1-4.352,1.913,79.342,79.342,0,0,1-10.817,1.336l-3.525.267c-3.45.259-6.908.526-10.366.543a72.429,72.429,0,0,1-12.747-1.1,1.42,1.42,0,0,1-1.011-.493,1.37,1.37,0,0,1-.15-.835,61.706,61.706,0,0,1,1.562-12.8c.4-1.721,3.492,2.147,3.633,2.305a3.542,3.542,0,0,0,2.807,1.5c3.558.192,7.518-1.971,10.374-3.892a13.366,13.366,0,0,1,1.921-1.194,5.691,5.691,0,0,1,1.554-.443,9.423,9.423,0,0,1,5.287,1.069c2.13,1.061,3.993,2.573,6.1,3.659a17.192,17.192,0,0,0,5.455,1.729c1.93.267,4.227.393,5.212,2.055h0A3.717,3.717,0,0,1,388.285,809.849Z" transform="translate(-136.523 -210.573)" fill="#3f3d56"/>
  <path id="Path_69" data-name="Path 69" d="M388.161,810.5a9.021,9.021,0,0,1-4.352,1.913,78.1,78.1,0,0,1-10.817,1.337l-3.525.267c-3.45.267-6.908.526-10.366.543a71.647,71.647,0,0,1-12.747-1.1,1.412,1.412,0,0,1-1.011-.484,5.991,5.991,0,0,1-.794-1.445c.075-4.3,1.245-8.6,2.205-12.8.4-1.721,3.492,2.147,3.634,2.305a3.542,3.542,0,0,0,2.807,1.5c3.558.192,7.518-1.971,10.374-3.892a13.372,13.372,0,0,1,1.921-1.194,5.69,5.69,0,0,1,1.554-.443c-.459,2.564-4.176,5.655-6.022,6.6-3.834,1.9-8.353.952-12.663,1.169a1.763,1.763,0,0,0-.9.217c-.509.342-.543,1.069-.526,1.671,0,1.019.167,2.214,1.052,2.731a2.915,2.915,0,0,0,1.42.292,200.389,200.389,0,0,0,31.574-1.1,17.366,17.366,0,0,0,5.145-1.144,13.56,13.56,0,0,0,2.982-1.921C390.45,806.589,389.322,809.413,388.161,810.5Z" transform="translate(-136.336 -210.587)" fill="#e8eaf2"/>
  <path id="Path_70" data-name="Path 70" d="M381.332,501.4c-.067,1.671,1.078,4.92-2.046,4.009-1.871-.535-2.4-2.74-4.761-2.255s-2.907,3.408-3.709,5.312a10.14,10.14,0,0,1-7.367,5.956,4.5,4.5,0,0,1-2.03,0c-1.529-.434-2.4-2.013-3.015-3.467a26.727,26.727,0,0,1-1.336-3.809,15.993,15.993,0,0,1-.484-2.79h0a11.447,11.447,0,0,1,0-1.93c.284-3.8,2.447-7.267,5.212-9.89a46.569,46.569,0,0,1,9.464-6.382,13.683,13.683,0,0,1,3.483-1.554,11.594,11.594,0,0,1,3.684-.15,12.831,12.831,0,0,1,4.686,1.1,6.682,6.682,0,0,1,1.671,1.153,5.012,5.012,0,0,1,1.378,2.364c.6,2.456-.969,4.669-2.239,6.607C382.819,497.426,381.407,499.255,381.332,501.4Z" transform="translate(-139.214 -152.168)" fill="#3f3d56"/>
  <path id="Path_71" data-name="Path 71" d="M448.656,546.164c-.668-1.671-3.475-6.348-2.665-7.944a20.886,20.886,0,0,1,2.138,3.817C448.664,543.34,448.23,545.086,448.656,546.164Z" transform="translate(-164.275 -161.885)" opacity="0.1"/>
  <path id="Path_72" data-name="Path 72" d="M384.533,496.09c1.278-1.938,2.84-4.177,2.247-6.607a5.179,5.179,0,0,0-1.821-2.723,4.687,4.687,0,0,1,.459,1.144c.6,2.456-.969,4.669-2.239,6.616-1.136,1.721-2.506,3.55-2.614,5.705-.067,1.671,1.078,4.92-2.055,4.009-1.863-.535-2.389-2.748-4.753-2.255s-2.907,3.4-3.709,5.313a10.182,10.182,0,0,1-7.367,5.956,4.385,4.385,0,0,1-2.03,0,2.981,2.981,0,0,1-.952-.468,4.093,4.093,0,0,0,2.305,2.046,4.5,4.5,0,0,0,2.03,0,10.182,10.182,0,0,0,7.376-5.947c.835-1.913,1.32-4.82,3.709-5.312s2.89,1.712,4.753,2.255c3.132.9,1.988-2.347,2.047-4.018C382,499.649,383.406,497.819,384.533,496.09Z" transform="translate(-140.037 -152.585)" opacity="0.1"/>
  <path id="Path_73" data-name="Path 73" d="M384.706,492.408a13.823,13.823,0,0,1-.961,1.362,15.446,15.446,0,0,1-2.205,2.289,18.143,18.143,0,0,1-1.5,1.178,24.49,24.49,0,0,1-3.024,1.8,55.843,55.843,0,0,1-9.656,3.391l-6.457,1.879c-.794.6-2.247,1.671-3.842,2.8a15.992,15.992,0,0,1-.484-2.79h0a11.446,11.446,0,0,1,0-1.93c.284-3.8,2.447-7.267,5.212-9.89a46.567,46.567,0,0,1,9.464-6.382,13.682,13.682,0,0,1,3.483-1.554,11.593,11.593,0,0,1,3.684-.15,12.83,12.83,0,0,1,4.686,1.1,6.682,6.682,0,0,1,1.671,1.153,6.349,6.349,0,0,1,.835,1.754,4.945,4.945,0,0,1-.91,3.984Z" transform="translate(-139.187 -152.046)" opacity="0.1"/>
  <path id="Path_74" data-name="Path 74" d="M383.351,491.241a12.994,12.994,0,0,1-.961,1.37,15.872,15.872,0,0,1-2.205,2.289,15.156,15.156,0,0,1-1.5,1.178,23.426,23.426,0,0,1-3.024,1.8,55.181,55.181,0,0,1-9.656,3.466l-6.457,1.879c-2.255,1.671-9.8,7.284-11.059,6.591-1.5-.835,6.682-6.616,6.682-6.616l.376.284c-1.194-.752-1.829-2.506-2.1-4.009a20.323,20.323,0,0,1-.067-8.186,9.706,9.706,0,0,1,4.694-6.465c1.086-.56,2.406-.936,3.182-1.8a2.165,2.165,0,0,0,.309-.418.978.978,0,0,0,.125-.226,3.091,3.091,0,0,1,.342-.66c.451-.518,1.261-.367,1.946-.284h.217a2.638,2.638,0,0,0,.368,0c2.422.05,4.778-1.295,7.234-1.295,2.69,0,5.012,1.554,7.351,2.615l1.353.618a5.932,5.932,0,0,1,3.709,3.909,4.92,4.92,0,0,1-.869,3.959Z" transform="translate(-137.045 -151.368)" fill="#ff0073"/>
  <path id="Path_75" data-name="Path 75" d="M367.138,481.727a1.261,1.261,0,0,1,.15.551,1.144,1.144,0,0,1-.409.835,1.929,1.929,0,0,1-1.019.359c-.259,0-.526.058-.794.067a2.162,2.162,0,0,1-1.052-.184,1.365,1.365,0,0,1-.184-.117,2.163,2.163,0,0,0,.309-.418c.067.05.125,0,.367,0a5.846,5.846,0,0,0,1.311-.217,1.671,1.671,0,0,0,.493-.242,1.453,1.453,0,0,0,.459-.7Z" transform="translate(-140.179 -151.24)" opacity="0.1"/>
  <path id="Path_76" data-name="Path 76" d="M356.73,507.653a3.076,3.076,0,0,0,1.119.418,5.1,5.1,0,0,0,.835.142,4.82,4.82,0,0,0,2.113-.593" transform="translate(-138.117 -156.061)" opacity="0.1"/>
  <g id="Group_3" data-name="Group 3" transform="translate(534.755 431.58)" opacity="0.1">
    <path id="Path_77" data-name="Path 77" d="M808.22,651.555c.626,0,1.261.083,1.9.083,13.582,0,24.591-9.982,24.591-22.294s-11.009-22.294-24.591-22.294c-.643,0-1.278.05-1.9.092,12.688.885,22.687,10.475,22.687,22.2S820.908,650.669,808.22,651.555Z" transform="translate(-808.22 -607.05)"/>
  </g>
  <path id="Path_78" data-name="Path 78" d="M713.883,628.017h0c2.147-6.682,4.176-13.966,6.006-21.8C699.416,592.157,641.655,582,573.6,582c-76.847,0-140.522,12.905-152.283,29.778.585,3.425,1.3,6.925,2.18,10.491v.008C448.977,631.625,578.222,673.883,713.883,628.017Z" transform="translate(-179.979 -171.233)" fill="#fcc329" opacity="0.3"/>
  <path id="Path_79" data-name="Path 79" d="M467.211,746.309s-19.655-7.827-20.791-27.039" transform="translate(-165.473 -197.785)" fill="none" stroke="#57b894" stroke-miterlimit="10" stroke-width="6"/>
  <path id="Path_80" data-name="Path 80" d="M467.211,746.309s-19.655-7.827-20.791-27.039" transform="translate(-165.473 -197.785)" fill="none" stroke="#407d3b" stroke-miterlimit="10" stroke-width="6" opacity="0.3"/>
  <path id="Path_81" data-name="Path 81" d="M476.347,749.279s-6.44-11.059-3.608-17.374l.292.76s3.082-6.323,7.125-8.562v.518a24.732,24.732,0,0,1,9.572-5.847v.518s3.508-2.506,13.8-3.959c0,0,5.187.284,7.159-1.863h.777a12.9,12.9,0,0,0-.418,8.269h.777s.084,7.727-.885,9.314h.518s-1.253,6.758-3.5,8.662l.785.217s-2.364,5.012-6.448,6.215l.66.359a56.769,56.769,0,0,1-8.553,2.564l.526.234S484.148,756.154,476.347,749.279Z" transform="translate(-174.275 -196.83)" fill="#57b894"/>
  <path id="Path_82" data-name="Path 82" d="M476.347,749.279s-6.44-11.059-3.608-17.374l.292.76s3.082-6.323,7.125-8.562v.518a24.732,24.732,0,0,1,9.572-5.847v.518s3.508-2.506,13.8-3.959c0,0,5.187.284,7.159-1.863h.777a12.9,12.9,0,0,0-.418,8.269h.777s.084,7.727-.885,9.314h.518s-1.253,6.758-3.5,8.662l.785.217s-2.364,5.012-6.448,6.215l.66.359a56.769,56.769,0,0,1-8.553,2.564l.526.234S484.148,756.154,476.347,749.279Z" transform="translate(-174.275 -196.83)" fill="#407d3b" opacity="0.3"/>
  <path id="Path_83" data-name="Path 83" d="M476.183,749.726s-6.164-10.625-3.458-16.706l.276.727s2.957-6.073,6.824-8.219v.493a23.638,23.638,0,0,1,9.188-5.6v.493s3.341-2.372,13.206-3.8c0,0,4.962.284,6.858-1.788h.735a12.4,12.4,0,0,0-.393,7.935h.743s.075,7.426-.835,8.954h.493s-1.2,6.49-3.341,8.353l.752.209s-2.264,4.8-6.173,5.972l.635.342a57.6,57.6,0,0,1-8.186,2.506l.5.226S483.7,756.325,476.183,749.726Z" transform="translate(-174.173 -197.134)" fill="#57b894"/>
  <path id="Path_84" data-name="Path 84" d="M505.729,722.09a94.223,94.223,0,0,1-14.685,19.137c6.991,2.506,15.2-7.25,15.2-7.25-5.989,9.314-14.016,8.094-15.7,7.718a53.7,53.7,0,0,1-6.682,5.5c3.258,3.182,13.273-1.671,13.273-1.671-7.985,5.07-12.379,2.848-13.657,1.93a34.652,34.652,0,0,1-6.415,3.416s2.623-1.879,6.415-5.012c-1.161-1.938-4.327-8.737,1.955-17.115,0,0-6.24,11.059-1.529,16.756,2.088-1.729,4.5-3.817,7.008-6.164-.6-2.289-1.671-9.581,6.54-15.871,0,0-8.771,8.712-6.123,15.445A93.867,93.867,0,0,0,505.729,722.09Z" transform="translate(-175.1 -198.249)" fill="#407d3b" opacity="0.3"/>
  <path id="Path_85" data-name="Path 85" d="M467.961,755.244s1.395,12.722-3.75,17.341l.042-.835s-5.388,4.527-10.024,4.928l.234-.434a24.693,24.693,0,0,1-11.118,1.445l.184-.476s-4.176.835-14.2-1.988c0,0-4.619-2.364-7.3-1.2l-.718-.284a12.888,12.888,0,0,0,3.734-7.384l-.727-.284s3.066-7.1,4.594-8.161l-.484-.192s3.892-5.663,6.682-6.49l-.626-.526s4.176-3.609,8.42-3.057l-.459-.593a56.584,56.584,0,0,1,8.854,1.119l-.384-.426S463.651,745.8,467.961,755.244Z" transform="translate(-159.489 -202.36)" fill="#57b894"/>
  <path id="Path_86" data-name="Path 86" d="M467.961,755.244s1.395,12.722-3.75,17.341l.042-.835s-5.388,4.527-10.024,4.928l.234-.434a24.693,24.693,0,0,1-11.118,1.445l.184-.476s-4.176.835-14.2-1.988c0,0-4.619-2.364-7.3-1.2l-.718-.284a12.888,12.888,0,0,0,3.734-7.384l-.727-.284s3.066-7.1,4.594-8.161l-.484-.192s3.892-5.663,6.682-6.49l-.626-.526s4.176-3.609,8.42-3.057l-.459-.593a56.584,56.584,0,0,1,8.854,1.119l-.384-.426S463.651,745.8,467.961,755.244Z" transform="translate(-159.489 -202.36)" fill="#407d3b" opacity="0.3"/>
  <path id="Path_87" data-name="Path 87" d="M468.575,755.23s1.32,12.212-3.609,16.656V771.1s-5.162,4.352-9.564,4.753l.175-.459a23.755,23.755,0,0,1-10.65,1.4l.184-.468s-4.034.835-13.615-1.879c0,0-4.419-2.272-6.983-1.153l-.693-.267a12.471,12.471,0,0,0,3.583-7.1l-.693-.276s2.94-6.816,4.4-7.835l-.459-.184s3.734-5.446,6.44-6.24l-.6-.5s4.018-3.475,8.069-2.949l-.443-.576a54.323,54.323,0,0,1,8.487,1.069l-.376-.409S464.424,746.159,468.575,755.23Z" transform="translate(-160.133 -202.413)" fill="#57b894"/>
  <path id="Path_88" data-name="Path 88" d="M432,770.7a93.63,93.63,0,0,1,21.175-11.5c-5.388-5.1-16.84.451-16.84.451,9.255-6.081,16.1-1.671,17.474-.685a52.517,52.517,0,0,1,8.353-2.3c-1.671-4.235-12.805-3.859-12.805-3.859,9.355-1.395,12.471,2.422,13.265,3.776a34.407,34.407,0,0,1,7.25-.51s-3.166.652-7.894,1.963c.267,2.247.409,9.748-8.729,14.852,0,0,10.191-7.568,8.186-14.693-2.606.735-5.655,1.671-8.9,2.79-.384,2.339-2.381,9.43-12.413,11.828,0,0,11.544-4.4,11.861-11.636A93.211,93.211,0,0,0,432,770.7Z" transform="translate(-162.174 -203.259)" fill="#407d3b" opacity="0.3"/>
  <path id="Path_89" data-name="Path 89" d="M477.39,753.826s6.073-2.364,9.021-.426l-.409.083s2.932,2.072,3.725,4.293h-.259a12.68,12.68,0,0,1,2.163,5.312h-.259s.961,1.98.835,7.3c0,0-.56,2.606.359,3.776l-.042.4a6.5,6.5,0,0,0-4.118-.877l-.05.393s-3.884-.576-4.611-1.194v.267s-3.3-1.178-4.068-2.506l-.175.384s-2.322-1.6-2.606-3.767l-.234.309a29.438,29.438,0,0,1-.6-4.544l-.159.251S473.347,757.225,477.39,753.826Z" transform="translate(-173.777 -203.28)" fill="#57b894"/>
  <path id="Path_90" data-name="Path 90" d="M477.39,753.826s6.073-2.364,9.021-.426l-.409.083s2.932,2.072,3.725,4.293h-.259a12.68,12.68,0,0,1,2.163,5.312h-.259s.961,1.98.835,7.3c0,0-.56,2.606.359,3.776l-.042.4a6.5,6.5,0,0,0-4.118-.877l-.05.393s-3.884-.576-4.611-1.194v.267s-3.3-1.178-4.068-2.506l-.175.384s-2.322-1.6-2.606-3.767l-.234.309a29.438,29.438,0,0,1-.6-4.544l-.159.251S473.347,757.225,477.39,753.826Z" transform="translate(-173.777 -203.28)" fill="#407d3b" opacity="0.3"/>
  <path id="Path_91" data-name="Path 91" d="M477.21,754.493s5.68-2.188,8.437-.393l-.376.083s2.74,1.913,3.492,3.976h-.242a11.694,11.694,0,0,1,2.03,4.928H490.3s.9,1.838.835,6.766c0,0-.526,2.406.334,3.492l-.042.367a6.164,6.164,0,0,0-3.851-.835l-.042.367s-3.642-.543-4.318-1.111v.242s-3.082-1.094-3.809-2.289l-.167.351s-2.172-1.478-2.439-3.483l-.217.284a26.426,26.426,0,0,1-.568-4.177l-.15.226S473.4,757.634,477.21,754.493Z" transform="translate(-173.703 -203.405)" fill="#57b894"/>
  <path id="Path_92" data-name="Path 92" d="M489.471,771a46.544,46.544,0,0,1-8.186-8.679c-1.754,3.224,2.364,8,2.364,8-4.093-3.659-2.865-7.518-2.556-8.278a25.9,25.9,0,0,1-2.163-3.726c-1.813,1.345-.217,6.624-.217,6.624-1.863-4.3-.426-6.273.117-6.824a17.314,17.314,0,0,1-1.169-3.408s.718,1.428,1.946,3.525c1.044-.409,4.619-1.437,8.228,2.3,0,0-4.928-3.918-8.086-2.055.685,1.153,1.52,2.506,2.506,3.909,1.169-.117,4.82-.067,7.242,4.435,0,0-3.575-5.012-7.075-4.176A45.424,45.424,0,0,0,489.471,771Z" transform="translate(-174.184 -203.622)" fill="#407d3b" opacity="0.3"/>
  <path id="Path_93" data-name="Path 93" d="M473.934,749.975s-6.39,1.328-8.971-1.069h.418s-2.506-2.506-2.957-4.853l.251.075a12.655,12.655,0,0,1-1.245-5.6l.251.075s-.618-2.113.351-7.351c0,0,.986-2.506.267-3.784l.117-.384a6.466,6.466,0,0,0,3.918,1.545l.109-.376s3.742,1.22,4.344,1.946l.075-.259s3.049,1.671,3.6,3.116l.242-.351s2.021,1.963,1.938,4.177l.276-.267a29.3,29.3,0,0,1-.159,4.577l.2-.217S478.52,747.3,473.934,749.975Z" transform="translate(-169.625 -199.071)" fill="#57b894"/>
  <path id="Path_94" data-name="Path 94" d="M473.934,750.054s-6.382,1.328-8.963-1.078h.409s-2.506-2.506-2.957-4.853l.251.075a12.788,12.788,0,0,1-1.245-5.6l.251.075s-.618-2.113.351-7.351c0,0,.986-2.506.276-3.784l.109-.384a6.523,6.523,0,0,0,3.918,1.545l.109-.384s3.742,1.22,4.352,1.946l.067-.251s3.057,1.712,3.608,3.107l.234-.342s2.021,1.963,1.938,4.177l.284-.259a28.472,28.472,0,0,1-.167,4.569l.2-.217S478.528,747.381,473.934,750.054Z" transform="translate(-169.625 -199.083)" fill="#407d3b" opacity="0.3"/>
  <path id="Path_95" data-name="Path 95" d="M474.4,749.7s-5.964,1.211-8.353-1.019h.384s-2.381-2.347-2.782-4.5l.242.067a11.694,11.694,0,0,1-1.186-5.187l.234.067s-.576-1.955.309-6.8c0,0,.919-2.289.251-3.508l.1-.351a6.147,6.147,0,0,0,3.667,1.445l.1-.359s3.5,1.144,4.068,1.821l.067-.242s2.865,1.6,3.383,2.89l.217-.317s1.9,1.821,1.821,3.842l.226-.284a26.408,26.408,0,0,1-.142,4.235l.184-.2S478.689,747.239,474.4,749.7Z" transform="translate(-169.941 -199.3)" fill="#57b894"/>
  <path id="Path_96" data-name="Path 96" d="M465.873,732.31a46.551,46.551,0,0,1,6.682,9.923c2.264-2.9-1-8.295-1-8.295,3.425,4.293,1.587,7.869,1.144,8.6a27.505,27.505,0,0,1,1.52,4.026c2-1.027,1.311-6.49,1.311-6.49,1.119,4.544-.626,6.256-1.253,6.682a16.933,16.933,0,0,1,.585,3.55s-.468-1.529-1.336-3.8c-1.094.234-4.786.643-7.727-3.625,0,0,4.176,4.678,7.626,3.341-.484-1.261-1.078-2.723-1.788-4.268-1.169-.083-4.761-.735-6.407-5.58,0,0,2.706,5.5,6.29,5.321a45.523,45.523,0,0,0-5.647-9.38Z" transform="translate(-170.442 -199.933)" fill="#407d3b" opacity="0.3"/>
  <path id="Path_97" data-name="Path 97" d="M703.965,524.279c-1.5-4.026,1.169-8.269,1.169-8.269l.217-9.188c-1.178-2.439,2.89-8.487,2.89-8.487s.961-4.561,1.821-5.012a6.943,6.943,0,0,0,1.813-2.331,1.412,1.412,0,0,1,.835-1.253,61.4,61.4,0,0,0,3.909-8.57,9.648,9.648,0,0,0,.785-5.1,9.784,9.784,0,0,0-.384-1.278l-.1-.259v-.2a6.683,6.683,0,0,1-.635-2.723c.117-1.963,1.93-3.408,3.734-4.235s3.817-1.378,5.237-2.773c1.771-1.737,2.18-4.377,2.589-6.816s1.052-5.087,3.057-6.557c1.771-1.295,4.177-1.32,6.365-.952a21.208,21.208,0,0,1,8.211,3.266c2.389,1.6,4.519,3.725,7.275,4.561,1.011.309,2.08.426,3.082.76a7.585,7.585,0,0,1,4.594,4.594h0c.042.1.067.2.1.3s.084.251.117.376.058.209.083.317.058.251.083.376a1.822,1.822,0,0,0,.042.317,3.025,3.025,0,0,1,.05.384v.718a16.424,16.424,0,0,1,2.932,3.684c3.533,5.588,7.927,13.674,9.873,17.332l.1.175a1.038,1.038,0,0,0,0-.117s8.612,8.654,3.583,7.518a9.563,9.563,0,0,0-1.036-.192l.058.961h0c.835,1.011,4.285,4.494-2.188,7.075-5.363,2.138-16.347,2.69-19.947,2.807l.309,1.52c5.571,4.561,3.425,9.765,3.533,13.156s.643,7.426.643,7.426,2.356,3.826,2.03,5.847,1.671,5.3,1.671,5.3,3,3.283,2.673,5.413a13.364,13.364,0,0,0,.535,4.878s2.038,3.709,1.178,5.847a4.911,4.911,0,0,0-.426,3.291s4.385.635,4.711,2.965,4.277,3.182,4.277,3.182,7.058,2.548,8.771,3.717S795,577.7,795,577.7s9.13,9.305,9.606,10.291,5.847,5.012,3.341,8.829l-.384.576a32.578,32.578,0,0,1-9.873,9.355,15.536,15.536,0,0,0-3.951,3.04c-1.119,1.746-19.9,13.766-19.9,13.766s-8.253,7.25-13.557,12.3l-.409,2.431c.067.109.142.217.209.342a1.479,1.479,0,0,1-.5,1.437l-.075.434s-2.138,18.034-4.068,26.462a21.96,21.96,0,0,0,.393,12,10.716,10.716,0,0,0,2.23-3.007,23.04,23.04,0,0,1,1.362,4.444c0,.226.05.434.067.635a.158.158,0,0,1,.142.058l.743,1.027c.835,1.136,1.545,2.33,2.272,3.525,1.671,2.731,6.966,4.009,6.966,4.009a5.179,5.179,0,0,0,1.42.493,16.027,16.027,0,0,0,4.494.134,8.139,8.139,0,0,1,1.328.326,5.088,5.088,0,0,1,1,.468h0a3.848,3.848,0,0,1,1.47,4.235h-.058l-.058.042-.092.058-.142.083-.117.075-.134.075-.125.067-.159.1-.142.075-.342.184-.167.083-.226.117-.184.092-.251.117-.234.117-.426.192-.251.109-.276.117-.3.242-.284.109-.535.2-.259.083-.376.125-.276.092-.434.125-.234.067-.668.167h-.217l-.526.117h-.242l-.568.092h-.167c-.251,0-.5.067-.76.092h-2.823l-.643-.067h-.284l-.56-.092-.276-.05-.835-.2a51.211,51.211,0,0,0-18.377-1.587c-4.711.393-5.914-1.22-5.914-1.22a2.393,2.393,0,0,1-.234-.4,1.287,1.287,0,0,1-.067-.159c0-.1-.083-.2-.117-.3s0-.134-.058-.209-.042-.2-.067-.3a.676.676,0,0,1,0-.226v-.434a11.457,11.457,0,0,1,.192-2.723,31.163,31.163,0,0,1,1.721-5.78l.334.234a3.565,3.565,0,0,1,.109-.551c1.161-6.223,1.562-21.141,1.6-22.72h0a2.807,2.807,0,0,1-1.8-.618l-.134-.117c-4.018-3.266-2.046-18.143-.727-20.214s1.57-12.688,2.047-16.071c.234-1.6,1.078-2.072,2.172-2.1h.468c.15-3.166-.3-10.55-.66-15.6h0a5.792,5.792,0,0,0-.075-.952l-1,.05-1.5-8.913s-.835-3.291-6.1-12.621a50.261,50.261,0,0,1-5.78-19.521s-1.6-3.074-1.178-4.452a25.338,25.338,0,0,0,.493-2.673,34.729,34.729,0,0,0-5.6-2.74c-5.6-2.264-9.815-6.507-11.769-8.62l-.309-.334a22.3,22.3,0,0,0-1.32,2.272,45.062,45.062,0,0,1-6.958-5.939,4.043,4.043,0,0,1-.593-1.027c-1.412-3.533,0-11.068,0-11.068A5.931,5.931,0,0,1,703.965,524.279Z" transform="translate(-250.548 -153.448)" fill="url(#linear-gradient-2)"/>
  <g id="Group_4" data-name="Group 4" transform="translate(473.624 373.179)" opacity="0.1">
    <path id="Path_98" data-name="Path 98" d="M729.856,559.69a15.334,15.334,0,0,0,3.634,2.33c.175-1.362.3-2.4.334-2.715.109-1.178-2.389-6.415-2.389-6.415s-4.786-6.415-4.678-7.376-1.846-3.742-1.846-3.742l-4.327-7.033a3.166,3.166,0,0,1-.451,3.291c-1.3,1.671-.217,5.129-.217,5.129l-.267,4.318v.426c.159.15.835.835,2.4,2.205s1.169,1.671,1.011,1.779c.326.576-.075.677-.075.677a2.84,2.84,0,0,0-.376,0l.342.317C725.6,555.347,729.472,558.989,729.856,559.69Z" transform="translate(-719.492 -534.74)" fill="url(#linear-gradient-3)"/>
  </g>
  <path id="Path_99" data-name="Path 99" d="M763.518,468.99c1.3,1.353-.175,3.258.835,4.711.568.835,1.829,1.345,2.506,2.113,1.395,1.512.342,3.441-.326,5.162-2.456,6.273,1.228,13.415,8.938,17.341a16.138,16.138,0,0,1-10.575.835c-3.441-.919-6.089-3.066-6.791-5.5-.493-1.729-.067-3.567-.961-5.221-1.378-2.573-5.6-4.126-6.849-6.724-.977-2.038.092-4.243,1.336-6.215a48.8,48.8,0,0,1,5.313-6.941c1.2-1.32,1.211-1.838,3.132-1.487a9.188,9.188,0,0,1,3.441,1.921Z" transform="translate(-256.018 -148.942)" fill="#3f3d56"/>
  <path id="Path_100" data-name="Path 100" d="M750.468,490.45a20.142,20.142,0,0,0,1.236,5.438,27.956,27.956,0,0,0,2.756,6.457,9.623,9.623,0,0,0,5.388,4.277,6.758,6.758,0,0,1-5.613,1.621c-1.445-.251-2.907-.986-4.3-.543a12.743,12.743,0,0,0-1.854.986,5.288,5.288,0,0,1-6.215-1.5,7.025,7.025,0,0,1-1.078-6.524c.418-1.328,1.161-2.506,1.554-3.884.576-1.98.342-4.176,1.311-6.022,1.387-2.648,5.271-4.176,7.9-5.229C751.7,486.933,750.4,488.754,750.468,490.45Z" transform="translate(-252.57 -152.283)" fill="#3f3d56"/>
  <path id="Path_101" data-name="Path 101" d="M753.827,488.56A20.121,20.121,0,0,0,755.055,494a27.892,27.892,0,0,0,2.756,6.448,9.581,9.581,0,0,0,5.388,4.277,6.724,6.724,0,0,1-5.613,1.629c-1.445-.259-2.907-.986-4.3-.543a12.663,12.663,0,0,0-1.846.986,5.3,5.3,0,0,1-6.215-1.5,7.033,7.033,0,0,1-1.086-6.524c.418-1.337,1.169-2.548,1.554-3.884.576-1.988.351-4.176,1.311-6.031,1.395-2.64,5.271-4.176,7.9-5.221C755.055,485.043,753.76,486.864,753.827,488.56Z" transform="translate(-253.564 -151.929)" opacity="0.1"/>
  <path id="Path_102" data-name="Path 102" d="M753.071,628.5s1.579,19.212.894,21.826-1.838,37.4-1.838,37.4-.476,20.3-2.055,24.558,10.675,3.024,11.1,3.024,3.466-8.679,3.466-8.679-3-5.262-1.1-13.624,3.993-26.262,3.993-26.262L771,645.7s-.468-4.945,1.37-7.735,4.176-21.033,3.684-22.611-13.022-5.012-13.022-5.012l-5.388,7.042Z" transform="translate(-256.088 -211.322)" fill="#ecb4b6"/>
  <path id="Path_103" data-name="Path 103" d="M775.872,619.368v.368c-.042.351-.075.718-.117,1.1-.66,6.089-2.163,15.211-3.416,17.115s-1.437,4.828-1.42,6.474v.51a5.716,5.716,0,0,0,.042.752l-2.69,16.146-.117.685-.685,4.176s-2.1,17.875-4,26.245a22.227,22.227,0,0,0,.234,11.444c.058.175.109.342.167.493a10.347,10.347,0,0,0,.7,1.671s-.426,1.22-.994,2.748c-.117.334-.251.693-.384,1.052l-.209.56a23.9,23.9,0,0,1-1.879,4.318c-.418.05-12.68,1.261-11.1-3a12.136,12.136,0,0,0,.476-1.9c1.2-6.515,1.579-22.662,1.579-22.662s1.153-34.815,1.838-37.4c.459-1.712-.092-10.859-.51-16.706h0c-.209-2.949-.384-5.1-.384-5.1l4.577-11.151,5.388-7.042s8.971,2.506,12.028,4.177l.092.05c.5.292.835.56.9.785a17.368,17.368,0,0,1-.117,4.076Z" transform="translate(-256.068 -211.329)" opacity="0.07"/>
  <path id="Path_104" data-name="Path 104" d="M770.185,650.28s-5.947,1.579-5.421,3.341Z" transform="translate(-258.339 -182.71)" opacity="0.05"/>
  <path id="Path_105" data-name="Path 105" d="M766.743,725.152s-.643,1.821-1.378,3.8c-.835.393-1.478.643-1.478.643s-2.289-2.13.735-5.254c.484-.51.9-.961,1.253-1.362A11.744,11.744,0,0,0,766.743,725.152Z" transform="translate(-257.668 -198.396)" opacity="0.1"/>
  <path id="Path_106" data-name="Path 106" d="M769.762,725.682c-.234,1.261-3,2.656-4.494,3.341-.568.251-.952.4-.952.4a2.789,2.789,0,0,1-.635-1c-.351-.919-.409-2.414,1.37-4.26.418-.426.777-.835,1.1-1.178,2-2.222,2.239-3.024,2.239-3.024a22.706,22.706,0,0,1,1.336,4.4A4.519,4.519,0,0,1,769.762,725.682Z" transform="translate(-258.059 -197.899)" fill="#3f3d56"/>
  <path id="Path_107" data-name="Path 107" d="M767.527,726.553c-.234,1.261-3,2.656-4.494,3.341a23.91,23.91,0,0,1-1.879,4.318c-.418.05-12.68,1.261-11.1-3a12.134,12.134,0,0,0,.476-1.9l3.4,2.4c1.729,1.236,4.335.317,4.335.317l3.182-2.74.835-.685a4.559,4.559,0,0,0,1.387-.326,6.775,6.775,0,0,0,2.74-2.2c.6-.643.944-.835,1.128-.835a4.517,4.517,0,0,1-.008,1.3Z" transform="translate(-255.205 -198.77)" opacity="0.1"/>
  <path id="Path_108" data-name="Path 108" d="M786.66,740.2a21.718,21.718,0,0,1-7.518,3.007,15.242,15.242,0,0,1-6.866-.192,49.866,49.866,0,0,0-18.034-1.579c-4.628.393-5.847-1.211-5.847-1.211-.768-1.044-.743-2.873-.434-4.7a31.637,31.637,0,0,1,1.671-5.739s2.1,1.479,3.842,2.715,4.335.309,4.335.309l3.976-3.416a6.243,6.243,0,0,0,4.126-2.506c1.111-1.186,1.328-.835,1.328-.835l.735,1.019c.835,1.119,1.512,2.314,2.23,3.492,1.671,2.706,6.858,3.976,6.858,3.976a5.229,5.229,0,0,0,1.386.493,15.871,15.871,0,0,0,4.419.134,5.845,5.845,0,0,1,2.222.752A3.825,3.825,0,0,1,786.66,740.2Z" transform="translate(-256.794 -198.894)" fill="#3f3d56"/>
  <circle id="Ellipse_8" data-name="Ellipse 8" cx="0.409" cy="0.409" r="0.409" transform="translate(507.134 532.294)" fill="#4b4b5b"/>
  <circle id="Ellipse_9" data-name="Ellipse 9" cx="0.409" cy="0.409" r="0.409" transform="translate(511.399 534.441)" fill="#4b4b5b"/>
  <circle id="Ellipse_10" data-name="Ellipse 10" cx="0.409" cy="0.409" r="0.409" transform="translate(509.719 537.498)" fill="#4b4b5b"/>
  <circle id="Ellipse_11" data-name="Ellipse 11" cx="0.409" cy="0.409" r="0.409" transform="translate(515.573 536.462)" fill="#4b4b5b"/>
  <circle id="Ellipse_12" data-name="Ellipse 12" cx="0.409" cy="0.409" r="0.409" transform="translate(509.02 533.622)" fill="#4b4b5b"/>
  <circle id="Ellipse_13" data-name="Ellipse 13" cx="0.409" cy="0.409" r="0.409" transform="translate(507.36 537.281)" fill="#4b4b5b"/>
  <circle id="Ellipse_14" data-name="Ellipse 14" cx="0.409" cy="0.409" r="0.409" transform="translate(513.454 535.635)" fill="#4b4b5b"/>
  <circle id="Ellipse_15" data-name="Ellipse 15" cx="0.409" cy="0.409" r="0.409" transform="translate(517.86 537.089)" fill="#4b4b5b"/>
  <path id="Path_109" data-name="Path 109" d="M786.668,742.084s-7.042,4.836-14.384,2.815a49.865,49.865,0,0,0-18.034-1.579c-4.628.393-5.847-1.211-5.847-1.211a3.532,3.532,0,0,1-.585-1.671v-.359A12.076,12.076,0,0,1,748,737.44c.969.71,2.965,1.587,7.008,1.721a126.306,126.306,0,0,1,16.23,2l8.938-.359s5.012-1.086,5.012-2.949C787.52,739.253,786.668,742.084,786.668,742.084Z" transform="translate(-256.805 -200.778)" opacity="0.1"/>
  <path id="Path_110" data-name="Path 110" d="M774.163,744.251a2.221,2.221,0,0,1-.443,0,50.329,50.329,0,0,1-7.643-1.353,10.216,10.216,0,0,0-1.955-.284c-2.08-.109-7.234-.351-10.132-.334h-.067a15.194,15.194,0,0,1-6.064-1.47v-.359a15.1,15.1,0,0,0,6.165,1.512c2.9,0,8.069.234,10.149.334a11.7,11.7,0,0,1,2.013.292c2.013.468,6.816,1.545,7.952,1.32Z" transform="translate(-255.484 -201.273)" fill="#ff0073"/>
  <path id="Path_111" data-name="Path 111" d="M772.093,651.655a5.716,5.716,0,0,0,.042.752L769.5,668.553c-.484.451-.944.894-1.378,1.311a35.743,35.743,0,0,0-3.734,3.942c-1.579,2.448-7.15,1.178-7.042.944S759.739,663,759.739,663l1.813-4.653a2.965,2.965,0,0,0,3.742-.835c1.169-1.236,3.792-3.667,5.571-5.3l1.253-1.144A5.584,5.584,0,0,0,772.093,651.655Z" transform="translate(-257.112 -183.293)" opacity="0.03"/>
  <path id="Path_112" data-name="Path 112" d="M779.682,620.261v.317c-.042.351-.075.718-.117,1.1-.393-.142-.777-.3-1.144-.468l-.535-.242A27.379,27.379,0,0,1,773,617.948l4.577-1.963,1.353-.585c.5.292.835.56.9.785A17.791,17.791,0,0,1,779.682,620.261Z" transform="translate(-260.922 -176.26)" opacity="0.05"/>
  <path id="Path_113" data-name="Path 113" d="M816.558,622.212c-.125.184-.242.376-.376.568a32.224,32.224,0,0,1-9.648,9.28,15.594,15.594,0,0,0-3.884,3.015c-1.1,1.737-19.563,13.649-19.563,13.649s-8.587,7.61-13.782,12.63l-.66.643-.317.309-1.052,1.052c-.451.468-.835.835-1.136,1.22l-.292.342c-.117.142-.209.267-.276.368-1.57,2.447-7.15,1.186-7.042.952s2.389-11.761,2.389-11.761l1.813-4.653a2.84,2.84,0,0,0,2.389.159,3.607,3.607,0,0,0,1.353-.944c1.178-1.245,3.8-3.675,5.58-5.3,1.044-.961,1.8-1.671,1.8-1.671l5.914-6.682s7.551-9.831,13.214-12.337a64.4,64.4,0,0,0-10.967-3.341,19.893,19.893,0,0,1-5.07-1.236l-.535-.242a27.762,27.762,0,0,1-4.887-3.024l4.577-1.963L800.169,603c.142,0,1.537.092,2.564.159l1.086.075s8.971,9.314,9.439,10.258S819.064,618.428,816.558,622.212Z" transform="translate(-262.197 -175.129)" fill="#ecb4b6"/>
  <path id="Path_114" data-name="Path 114" d="M796.29,620.81s10.333,1.261,12.379,3.391c0,0-9.071.635-9.464,1.813,0,0,5.187-3.5,6.624-2.6Z" transform="translate(-268.373 -177.249)" opacity="0.03"/>
  <path id="Path_115" data-name="Path 115" d="M769.841,673.569l-.317.309-1.011,1.052c-.451.468-.835.835-1.136,1.22l-1.336-1.737a5.587,5.587,0,0,1,1.52-.919,2.648,2.648,0,0,1,2.322.067Z" transform="translate(-258.561 -186.986)" opacity="0.05"/>
  <path id="Path_116" data-name="Path 116" d="M769.11,677.5a7.7,7.7,0,0,1-1.078.443l-1.061-1.387-1.362-1.779a5.483,5.483,0,0,1,1.529-.919,2.631,2.631,0,0,1,2.314.067,3.341,3.341,0,0,1,1.228,1.362S771.09,676.485,769.11,677.5Z" transform="translate(-258.563 -187.083)" fill="#3f3d56"/>
  <path id="Path_117" data-name="Path 117" d="M768.152,674.881l-.217.217a7.7,7.7,0,0,1-1.078.443l-1.061-1.387c-.117.142-.209.267-.276.368-1.57,2.447-7.15,1.186-7.042.952s2.389-11.761,2.389-11.761l1.813-4.653a2.84,2.84,0,0,0,2.389.159,1.161,1.161,0,0,1,0,1.671,11.143,11.143,0,0,0-1.8,5.246c-.7,1.955,1.445,4.344,2.69,5.354a4.02,4.02,0,0,0,.668.451,1.537,1.537,0,0,1,.593.668A12.522,12.522,0,0,1,768.152,674.881Z" transform="translate(-256.924 -184.632)" opacity="0.05"/>
  <path id="Path_118" data-name="Path 118" d="M765.7,674.49l-2.4,2.406a17.942,17.942,0,0,0-7.242,9.03,18.733,18.733,0,0,1-.835,2.08,9.291,9.291,0,0,0-.627,2.949c-.058.61-.083,1.219-.1,1.746a2.856,2.856,0,0,1-.752,1.838h0a2.823,2.823,0,0,1-3.859.334l-.134-.117c-3.943-3.233-2.013-17.992-.71-20.047s1.537-12.58,2.013-15.937c.226-1.6,1.052-2.055,2.13-2.08a31.709,31.709,0,0,1,3.734.568h.209c2.447.192,7.142.919,5.5,3.191a11.085,11.085,0,0,0-1.787,5.246c-.835,2.406,2.6,5.488,3.341,5.847S765.7,674.49,765.7,674.49Z" transform="translate(-254.527 -184.671)" fill="#3f3d56"/>
  <circle id="Ellipse_16" data-name="Ellipse 16" cx="0.702" cy="0.702" r="0.702" transform="translate(506.518 478.098)" fill="#4b4b5b"/>
  <circle id="Ellipse_17" data-name="Ellipse 17" cx="0.702" cy="0.702" r="0.702" transform="translate(505.614 480.855)" fill="#4b4b5b"/>
  <circle id="Ellipse_18" data-name="Ellipse 18" cx="0.702" cy="0.702" r="0.702" transform="translate(502.846 485.295)" fill="#4b4b5b"/>
  <circle id="Ellipse_19" data-name="Ellipse 19" cx="0.702" cy="0.702" r="0.702" transform="translate(504.216 483.013)" fill="#4b4b5b"/>
  <circle id="Ellipse_20" data-name="Ellipse 20" cx="0.702" cy="0.702" r="0.702" transform="translate(501.695 456.578)" fill="#4b4b5b"/>
  <path id="Path_119" data-name="Path 119" d="M753.743,684.46s-.576,6.849,0,10.024a2.815,2.815,0,0,1-3.892.367l-.134-.117c-3.943-3.233-2.013-17.992-.71-20.047s1.537-12.58,2.013-15.937c.226-1.6,1.052-2.055,2.13-2.08a31.684,31.684,0,0,1,3.734.568c0,3.341-.184,11.043-1.061,13.574C754.7,674.1,753.743,684.46,753.743,684.46Z" transform="translate(-253.63 -184.667)" opacity="0.1"/>
  <path id="Path_120" data-name="Path 120" d="M752.026,670.519a62,62,0,0,0-1.737,13.473c.075,2.782-.242,8.2-.418,10.859l-.134-.117c-3.943-3.233-2.013-17.992-.71-20.047s1.537-12.58,2.013-15.937c.226-1.6,1.052-2.055,2.13-2.08C753.02,660.095,752.611,668.473,752.026,670.519Z" transform="translate(-253.264 -184.653)" opacity="0.1"/>
  <path id="Path_121" data-name="Path 121" d="M755.518,656.91c-.142,2.69-.585,9.865-1.311,11.92-.9,2.573-1.863,14.877-1.9,15.4h.309c0-.134,1-12.8,1.888-15.319.743-2.113,1.178-9.188,1.328-11.961Z" transform="translate(-254.489 -184.454)" fill="#ff0073"/>
  <path id="Path_122" data-name="Path 122" d="M758.854,498.22a60.846,60.846,0,0,1,7.994,1.98c2.89,1.069,3.341,1.671,3.341,1.671l3,.468V499.13s10.742.794,11.819.359c0,0,.058,0,.067-.042.526-.526-.309,4.176.476,5.154s4.176,4.452-2.155,7.017-20.774,2.815-20.774,2.815l-4.1-8.094Z" transform="translate(-258.902 -154.544)" fill="#ff0073"/>
  <path id="Path_123" data-name="Path 123" d="M737.068,511.11l11.36-2.414a27.624,27.624,0,0,1-3.291-8.7,11.987,11.987,0,0,1,.769-7.3c3.258-6.624-8.837-10.09-8.837-10.09s-4.427,6.841-8.42,10.274a6.461,6.461,0,0,1-3.675,1.921C720.763,494.805,737.068,511.11,737.068,511.11Z" transform="translate(-248.253 -151.812)" fill="#ecb4b6"/>
  <path id="Path_124" data-name="Path 124" d="M806.383,604.153s-4.945,11.694-9.464,11.886c-2.723.125-11.126,1.278-17.383,2.18l-.56.075a27.76,27.76,0,0,1-4.887-3.024l4.578-1.963L802.732,603c.142,0,1.537.092,2.564.159Z" transform="translate(-263.937 -174.117)" opacity="0.1"/>
  <path id="Path_125" data-name="Path 125" d="M767.678,615.554c-4.293.618,1.161,4.945,1.161,4.945s-2.1,1.579-4.527,7.359-3.575,5.371-3.575,5.371l-6.682.359c-.209-2.949-.384-5.1-.384-5.1l4.577-11.151,5.388-7.042s8.971,2.506,12.028,4.177l.092.05c.5.292.835.56.9.785C776.749,615.755,767.87,613.466,767.678,615.554Z" transform="translate(-256.867 -175.639)" opacity="0.1"/>
  <path id="Path_126" data-name="Path 126" d="M737.068,513.136l11.36-2.414a27.624,27.624,0,0,1-3.291-8.7l-3.55,3.425a8.712,8.712,0,0,1-4.861-1.42,7.209,7.209,0,0,1-1.671-1.52c-2.506-3.157-5.571-7.259-5.571-7.259s-.351-.159-.835-.342a6.461,6.461,0,0,1-3.675,1.921C720.763,496.831,737.068,513.136,737.068,513.136Z" transform="translate(-248.252 -153.956)" opacity="0.1"/>
  <path id="Path_127" data-name="Path 127" d="M794.879,585.384s-4.945,11.694-9.464,11.886-24.716,3.266-24.716,3.266-2.1,1.579-4.527,7.359-3.575,5.363-3.575,5.363l-7.785.426-1.47-8.837s-.835-3.258-6-12.529a50.052,50.052,0,0,1-5.68-19.354s-1.579-3.057-1.161-4.419,1.8-12.2,1.9-13.365-2.314-6.307-2.314-6.307-4.628-6.315-4.519-7.259-1.788-3.684-1.788-3.684l-4.177-6.916a3.149,3.149,0,0,1-.434,3.233c-1.261,1.671-.209,5.054-.209,5.054l-.251,4.243-.059,1.019s.627.627,2.347,2.205.91,1.788.91,1.788c-5.363-.735-9.573,7.994-9.573,7.994a44.386,44.386,0,0,1-6.841-5.847,3.524,3.524,0,0,1-.576-1.019c-1.395-3.5,0-10.976,0-10.976a5.922,5.922,0,0,1,.451-6.206c-1.47-3.993,1.153-8.2,1.153-8.2l.217-9.188c-1.161-2.414,2.84-8.411,2.84-8.411s.944-4.519,1.788-4.945,1.788-2.314,1.788-2.314c-.109-2.1,5.471-2.314,5.989-2.414a10.991,10.991,0,0,0,1.9-1.111,14.305,14.305,0,0,1,1.671-.994c.944-.426,3.466.735,3.466.735s3.049,4.1,5.571,7.259a7.207,7.207,0,0,0,1.671,1.52,8.712,8.712,0,0,0,4.861,1.395l3.617-3.483,10.692.643L755.1,515.3c5.471,4.519,3.341,9.673,3.475,13.039s.626,7.367.626,7.367,2.314,3.784,2,5.78,1.671,5.262,1.671,5.262,2.94,3.258,2.631,5.363a13.183,13.183,0,0,0,.526,4.836s2,3.684,1.153,5.789a4.906,4.906,0,0,0-.418,3.258s4.31.635,4.628,2.949,4.176,3.157,4.176,3.157,6.941,2.506,8.62,3.684S794.879,585.384,794.879,585.384Z" transform="translate(-249.248 -155.801)" fill="#ff0073"/>
  <path id="Path_128" data-name="Path 128" d="M707,541.67s7.894.944,8.837,2.1-7.885,1.27-7.885,1.27Z" transform="translate(-241.66 -162.453)" opacity="0.1"/>
  <path id="Path_129" data-name="Path 129" d="M719.828,548.856s-5.78-2.055-5.939-1.42,5.939,4.1,5.939,4.1Z" transform="translate(-243.411 -163.52)" opacity="0.1"/>
  <path id="Path_130" data-name="Path 130" d="M723.85,535.5c.961,1.579,9.314,11.769,9.314,11.769l-8.946-13.031Z" transform="translate(-246.67 -161.225)" opacity="0.1"/>
  <path id="Path_131" data-name="Path 131" d="M725.3,532.306c.626.835,7.309,11.778,7.309,11.778l-6.724-12.3Z" transform="translate(-246.905 -160.754)" opacity="0.1"/>
  <path id="Path_132" data-name="Path 132" d="M708.55,516.319s2.573-3.625,5.1-1.311S708.55,516.319,708.55,516.319Z" transform="translate(-241.808 -157.32)" opacity="0.1"/>
  <path id="Path_133" data-name="Path 133" d="M730.14,512.836s6.574,0,9.781,1.47S737.081,509.9,730.14,512.836Z" transform="translate(-248.658 -156.908)" opacity="0.1"/>
  <path id="Path_134" data-name="Path 134" d="M736.737,505.2h-.986s-2.255-.835-2.84-2.581-5.12-.159-5.12-.159-.66.5-.083-.309-2-3.341-3.157-5.054a1.522,1.522,0,0,1-.2-.426,14.292,14.292,0,0,1,1.671-.994c.944-.418,3.466.743,3.466.743s3.049,4.1,5.571,7.25A7.451,7.451,0,0,0,736.737,505.2Z" transform="translate(-247.115 -153.952)" opacity="0.1"/>
  <path id="Path_135" data-name="Path 135" d="M736.737,504.452h-.986s-2.255-.835-2.84-2.581-5.12-.15-5.12-.15-.66.493-.083-.317-2-3.341-3.157-5.012a1.673,1.673,0,0,1-.2-.426,14.3,14.3,0,0,1,1.671-.994c.944-.426,3.466.735,3.466.735s3.049,4.1,5.571,7.259A7.21,7.21,0,0,0,736.737,504.452Z" transform="translate(-247.115 -153.818)" fill="#ff0073"/>
  <circle id="Ellipse_21" data-name="Ellipse 21" cx="0.693" cy="0.693" r="0.693" transform="translate(494.728 356.258)" fill="#e7c7ca"/>
  <circle id="Ellipse_22" data-name="Ellipse 22" cx="0.693" cy="0.693" r="0.693" transform="translate(504.874 372.155)" fill="#e7c7ca"/>
  <circle id="Ellipse_23" data-name="Ellipse 23" cx="0.693" cy="0.693" r="0.693" transform="translate(501.21 362.115)" fill="#e7c7ca"/>
  <circle id="Ellipse_24" data-name="Ellipse 24" cx="0.693" cy="0.693" r="0.693" transform="translate(506.512 382.487)" fill="#e7c7ca"/>
  <circle id="Ellipse_25" data-name="Ellipse 25" cx="0.693" cy="0.693" r="0.693" transform="translate(514.025 400.32)" fill="#e7c7ca"/>
  <circle id="Ellipse_26" data-name="Ellipse 26" cx="0.693" cy="0.693" r="0.693" transform="translate(514.611 409.448)" fill="#e7c7ca"/>
  <path id="Path_136" data-name="Path 136" d="M785.49,493.549l-1.42,4.577-4.477-.317-3.993-4.26s-.259-.768-.668-1.9c-1.011-2.823-2.915-7.935-3.959-9.506-1.479-2.214-2.422-11.36-2.422-11.36s1.612-3.684,6.223,3.684c3.475,5.538,7.793,13.557,9.706,17.182C785.114,492.83,785.49,493.549,785.49,493.549Z" transform="translate(-260.65 -149.418)" fill="#ecb4b6"/>
  <path id="Path_137" data-name="Path 137" d="M756.791,571.919c0,1.128-4.719,1.671-6.95,1.838l-1.144.083c.518,1.178-2.264,10.232-2.264,10.232a4.512,4.512,0,0,1-.7-.092c-3.659-.743-10.926-5.847-10.926-5.847s-.15-1.737-7.651-4.786c-5.513-2.239-9.648-6.448-11.569-8.545a12.83,12.83,0,0,0-1.186-1.161l6.632-6.891,2.506,2.339a88.549,88.549,0,0,1,6.682,6.682c.576,1.061,10.984,6.139,10.984,6.139,2.314-2,7.317-2.422,7.317-2.422S756.791,570.449,756.791,571.919Z" transform="translate(-247.147 -165.686)" fill="#ecb4b6"/>
  <path id="Path_138" data-name="Path 138" d="M750.35,546.51c.317.635,14.576,10.1,16.99,10.257s-2.264-4.519-2.414-4.577Z" transform="translate(-255.336 -163.471)" opacity="0.1"/>
  <path id="Path_139" data-name="Path 139" d="M791.309,737.725a5.9,5.9,0,0,0-2.18-.752,15.868,15.868,0,0,1-4.419-.134,10.623,10.623,0,0,1,.317,3.892l1.336-.058S791.334,739.58,791.309,737.725Z" transform="translate(-264.343 -200.679)" fill="#fff" opacity="0.3"/>
  <path id="Path_140" data-name="Path 140" d="M755.79,697.679c-.058.61-.083,1.22-.1,1.746a2.856,2.856,0,0,1-.735,1.838h0a25,25,0,0,1-.226-3.742C754.821,697.7,755.3,697.712,755.79,697.679Z" transform="translate(-254.956 -228.136)" fill="#fff" opacity="0.3"/>
  <path id="Path_141" data-name="Path 141" d="M723.521,559.055c-3.425-.217-6.348,3.341-7.935,5.789a12.858,12.858,0,0,0-1.186-1.2l6.632-6.891Z" transform="translate(-243.864 -165.346)" opacity="0.1"/>
  <path id="Path_142" data-name="Path 142" d="M722.01,557.339c-5.363-.735-9.573,8-9.573,8a44.136,44.136,0,0,1-6.841-5.9,3.476,3.476,0,0,1-.576-1.011c1.245-3.007,4.694-8.01,13.791-6.106l-.058,1.019s.626.635,2.347,2.205S722.01,557.339,722.01,557.339Z" transform="translate(-241.858 -164.533)" opacity="0.1"/>
  <path id="Path_143" data-name="Path 143" d="M722.01,558.107c-5.363-.735-9.573,7.994-9.573,7.994a44.388,44.388,0,0,1-6.841-5.847,3.523,3.523,0,0,1-.576-1.019c1.245-3,4.694-8,13.791-6.1l-.058,1.019s.626.626,2.347,2.205S722.01,558.107,722.01,558.107Z" transform="translate(-241.858 -164.684)" fill="#ff0073"/>
  <path id="Path_144" data-name="Path 144" d="M786.748,497.844l-1.42,4.577-4.477-.317-3.993-4.26s-.259-.768-.668-1.9c.56.317,4.427,2.456,6.774,2.581,1.854.092,2.506-1.671,2.773-2.581C786.372,497.126,786.748,497.844,786.748,497.844Z" transform="translate(-262.243 -153.97)" opacity="0.1"/>
  <path id="Path_145" data-name="Path 145" d="M788.115,499.648l-.292-.342c-1.061-1.211-1.988-2.155-1.988-2.155a4.928,4.928,0,0,1-.91,2.264,2.322,2.322,0,0,1-1.98.885,12.871,12.871,0,0,1-3.926-1.161,32.437,32.437,0,0,1-2.915-1.462V503.1s-1.111,7.676,9.1,3.575c0,0-.635-2.823,3.241-2.28Z" transform="translate(-262.397 -154.26)" opacity="0.1"/>
  <path id="Path_146" data-name="Path 146" d="M776.092,496.543l-.058,2.506v2.89s-1.1,7.685,9.1,3.575c0,0-.743-3.258,4.177-2.1S785.789,496,785.789,496s-.351,3.266-2.882,3.141S776.092,496.543,776.092,496.543Z" transform="translate(-262.637 -154.045)" fill="#ff0073"/>
  <path id="Path_147" data-name="Path 147" d="M752.81,590.279c.109-.159.526-12.73,2.155-13.047s5.68,1.37,5.68,1.37l-.735,10.024Z" transform="translate(-255.067 -169.252)" opacity="0.1"/>
  <path id="Path_148" data-name="Path 148" d="M754.875,577.148c.518,1.178-2.264,10.232-2.264,10.232a4.5,4.5,0,0,1-.7-.092c.251-3.742.835-10.207,1.963-10.433a5.7,5.7,0,0,1,2.147.209Z" transform="translate(-254.43 -169.139)" opacity="0.1"/>
  <path id="Path_149" data-name="Path 149" d="M752.05,589.9c.109-.159.526-12.73,2.163-13.047s5.68,1.37,5.68,1.37l-.743,10.024Z" transform="translate(-254.843 -169.181)" fill="#ff0073"/>
  <path id="Path_150" data-name="Path 150" d="M766.721,501.173a27.8,27.8,0,0,1-2.756-6.457c-.351-1.078-.7-2.163-.944-3.266a13.022,13.022,0,0,1-8.929,5.538,24.094,24.094,0,0,0-1.044,2.506,7.041,7.041,0,0,0,1.086,6.532,5.3,5.3,0,0,0,6.215,1.487,14.507,14.507,0,0,1,1.846-.986c1.395-.443,2.857.292,4.3.543a6.682,6.682,0,0,0,5.613-1.62,9.614,9.614,0,0,1-5.388-4.277Z" transform="translate(-256.205 -153.283)" fill="#3f3d56"/>
  <circle id="Ellipse_27" data-name="Ellipse 27" cx="13.039" cy="13.039" r="13.039" transform="translate(484.377 318.979)" opacity="0.1"/>
  <circle id="Ellipse_28" data-name="Ellipse 28" cx="13.039" cy="13.039" r="13.039" transform="translate(484.377 318.15)" fill="#ecb4b6"/>
  <path id="Path_151" data-name="Path 151" d="M755.23,473.458c1.529-1.061,3.784-.209,5.4-1.144a4.018,4.018,0,0,0,1.671-2.138,7.718,7.718,0,0,0-4.586-9.664c-.994-.326-2.038-.443-3.04-.752-2.706-.835-4.8-2.932-7.15-4.519A20.707,20.707,0,0,0,739.451,452c-2.138-.368-4.511-.342-6.256.944-1.971,1.462-2.6,4.085-3,6.507s-.835,5.012-2.556,6.758c-1.387,1.378-3.341,1.913-5.145,2.74s-3.55,2.255-3.667,4.176c-.092,1.529.835,2.907,1.169,4.41a9.639,9.639,0,0,1-.768,5.054,60.7,60.7,0,0,1-6.5,12.905,35.377,35.377,0,0,0,10.333,3.809,9.1,9.1,0,0,0,4.494,0,7.417,7.417,0,0,0,4.076-3.867,12.729,12.729,0,0,0,1.37-4.87c.259-3.341-.835-7.016.7-10.024a3.5,3.5,0,0,1,1.278-1.52,10.131,10.131,0,0,1,2.2-.66,9.02,9.02,0,0,0,3.241-2.23l3.475-3.233a9.649,9.649,0,0,1,2.7-1.988,6.733,6.733,0,0,1,5.78.643c1.537.835,3.341,2.155,4.861,1.32" transform="translate(-247.427 -146.322)" fill="#3f3d56"/>
  <g id="Group_5" data-name="Group 5" transform="translate(465.269 318.608)" opacity="0.1">
    <path id="Path_152" data-name="Path 152" d="M764.87,477.327l.919-.267A2.222,2.222,0,0,1,764.87,477.327Z" transform="translate(-721.284 -469.258)"/>
    <path id="Path_153" data-name="Path 153" d="M764.662,477.377l-1.052.292a3.075,3.075,0,0,1,.593-.309,2.815,2.815,0,0,0,.459.017Z" transform="translate(-721.077 -469.308)"/>
    <path id="Path_154" data-name="Path 154" d="M722.6,500.255a9.1,9.1,0,0,0,4.494,0,7.417,7.417,0,0,0,4.076-3.867,12.728,12.728,0,0,0,1.37-4.87c.259-3.383-.835-7.017.7-10.024a3.5,3.5,0,0,1,1.278-1.52,10.273,10.273,0,0,1,2.2-.66,9.021,9.021,0,0,0,3.241-2.23l3.475-3.233a9.647,9.647,0,0,1,2.7-1.988,6.732,6.732,0,0,1,5.78.643,10.217,10.217,0,0,0,3.483,1.57,3.077,3.077,0,0,0-.593.309l1.052-.292a2.221,2.221,0,0,0,.919-.267l-.919.267a2.809,2.809,0,0,1-.459,0c1.479-.568,3.391,0,4.811-.835a4.018,4.018,0,0,0,1.671-2.138,6.841,6.841,0,0,0,.351-3.4,7.258,7.258,0,0,1,.075,5.1,4.018,4.018,0,0,1-1.671,2.138c-1.42.835-3.341.267-4.811.835a10.218,10.218,0,0,1-3.483-1.57,6.732,6.732,0,0,0-5.78-.643,9.648,9.648,0,0,0-2.7,1.988l-3.475,3.241a9.021,9.021,0,0,1-3.241,2.23,10.275,10.275,0,0,0-2.2.66,3.5,3.5,0,0,0-1.278,1.52c-1.5,3.04-.443,6.682-.7,10.024a12.729,12.729,0,0,1-1.37,4.87,7.417,7.417,0,0,1-4.076,3.867,9.1,9.1,0,0,1-4.494,0,35.376,35.376,0,0,1-10.333-3.809c.242-.368.476-.735.71-1.1a35.165,35.165,0,0,0,9.2,3.182Z" transform="translate(-712.69 -467.72)"/>
    <path id="Path_155" data-name="Path 155" d="M720,478a15.61,15.61,0,0,1,.735,2.214c0,.167.05.334.067.5A10.859,10.859,0,0,1,720,478Z" transform="translate(-713.894 -469.413)"/>
  </g>
  <path id="Path_156" data-name="Path 156" d="M754.048,506.949a5.3,5.3,0,0,0,6.215,1.5,12.755,12.755,0,0,1,1.863-.986c1.395-.443,2.857.284,4.3.543a6.75,6.75,0,0,0,4.828-1.027,6.6,6.6,0,0,0,.785.251,6.724,6.724,0,0,1-5.613,1.671c-1.445-.259-2.907-.986-4.3-.543a12.749,12.749,0,0,0-1.854.986,5.3,5.3,0,0,1-6.215-1.5,6.683,6.683,0,0,1-1.42-4.653,6.557,6.557,0,0,0,1.412,3.759Z" transform="translate(-256.186 -155.325)" opacity="0.1"/>
</svg>
